<svg xmlns="http://www.w3.org/2000/svg" xmlns:xlink="http://www.w3.org/1999/xlink" width="277" zoomAndPan="magnify" viewBox="0 0 207.75 150.749998" height="201" preserveAspectRatio="xMidYMid meet" version="1.2"><defs><clipPath id="4977739cdf"><path d="M 69 28 L 189 28 L 189 122 L 69 122 Z M 69 28 "/></clipPath><clipPath id="25c830d6a2"><path d="M 50.304688 68.3125 L 153.210938 -0.0507812 L 207.488281 81.652344 L 104.582031 150.015625 Z M 50.304688 68.3125 "/></clipPath><clipPath id="17f329f2a6"><path d="M 50.304688 68.3125 L 153.210938 -0.0507812 L 207.488281 81.652344 L 104.582031 150.015625 Z M 50.304688 68.3125 "/></clipPath><clipPath id="97808b981b"><path d="M 113.953125 30.871094 C 126.128906 26.742188 138.839844 27.992188 149.511719 33.285156 C 155.921875 36.441406 161.578125 41.058594 165.976562 46.914062 C 177.75 46.757812 185.929688 49.445312 187.832031 55.136719 C 189.769531 60.800781 184.890625 67.898438 175.394531 74.921875 C 175.394531 82.179688 173.683594 89.304688 170.527344 95.714844 C 165.234375 106.386719 155.839844 115.015625 143.664062 119.144531 C 131.496094 123.21875 118.8125 122 108.136719 116.707031 L 108.101562 116.730469 C 101.703125 113.519531 96.050781 108.902344 91.671875 103.078125 C 79.863281 103.257812 71.695312 100.511719 69.78125 94.882812 C 67.878906 89.191406 72.757812 82.09375 82.253906 75.074219 C 82.234375 67.78125 83.945312 60.652344 87.121094 54.28125 C 92.414062 43.605469 101.785156 34.945312 113.953125 30.871094 Z M 169.019531 51.492188 C 170.585938 54.15625 171.917969 57.078125 172.945312 60.152344 C 173.972656 63.226562 174.691406 66.300781 175.039062 69.421875 C 181.332031 64.375 184.601562 59.820312 183.515625 56.582031 C 182.453125 53.378906 177.0625 51.683594 169.019531 51.492188 Z M 88.597656 98.523438 C 87.042969 95.800781 85.734375 92.914062 84.671875 89.863281 C 83.644531 86.789062 82.933594 83.660156 82.550781 80.5625 C 76.257812 85.605469 73.015625 90.195312 74.113281 93.375 C 75.195312 96.613281 80.53125 98.300781 88.597656 98.523438 Z M 170.722656 78.125 C 165.640625 81.402344 159.558594 84.628906 152.8125 87.6875 C 153.449219 92.390625 153.570312 96.777344 153.332031 100.691406 C 153.078125 104.363281 152.453125 107.621094 151.4375 110.375 C 157.976562 106.234375 163.121094 100.378906 166.429688 93.667969 C 168.863281 88.851562 170.328125 83.566406 170.722656 78.125 Z M 148.472656 89.558594 C 144.304688 91.308594 139.917969 92.957031 135.367188 94.507812 C 130.824219 96 126.34375 97.355469 121.96875 98.484375 C 124.003906 101.851562 126.121094 104.8125 128.273438 107.289062 C 133.320312 113.125 138.390625 116.101562 142.191406 114.792969 C 146.015625 113.519531 148.265625 108.117188 148.78125 100.414062 C 148.988281 97.132812 148.898438 93.484375 148.472656 89.558594 Z M 117.347656 99.625 C 110.121094 101.28125 103.351562 102.324219 97.335938 102.816406 C 100.964844 106.90625 105.296875 110.21875 110.148438 112.628906 C 116.863281 115.9375 124.445312 117.496094 132.199219 116.863281 C 129.738281 115.300781 127.234375 113.054688 124.832031 110.285156 C 122.257812 107.328125 119.71875 103.734375 117.347656 99.625 Z M 86.929688 71.867188 C 92.011719 68.59375 98.03125 65.355469 104.800781 62.328125 C 104.199219 57.601562 104.019531 53.207031 104.296875 49.265625 C 104.546875 45.597656 105.175781 42.335938 106.1875 39.582031 C 99.636719 43.78125 94.527344 49.613281 91.199219 56.292969 L 91.164062 56.316406 C 88.785156 61.140625 87.324219 66.429688 86.929688 71.867188 Z M 109.179688 60.4375 C 113.34375 58.683594 117.671875 57.027344 122.25 55.511719 C 126.800781 53.957031 131.304688 52.640625 135.683594 51.511719 C 133.648438 48.140625 131.507812 45.148438 129.351562 42.671875 C 124.273438 36.859375 119.257812 33.894531 115.433594 35.167969 C 111.574219 36.460938 109.382812 41.875 108.867188 49.578125 C 108.628906 52.882812 108.75 56.507812 109.179688 60.4375 Z M 140.269531 50.390625 C 147.492188 48.738281 154.273438 47.636719 160.3125 47.175781 C 156.683594 43.089844 152.328125 39.742188 147.5 37.363281 C 140.765625 34.023438 133.179688 32.464844 125.453125 33.128906 C 127.910156 34.695312 130.394531 36.902344 132.792969 39.671875 C 135.390625 42.667969 137.929688 46.261719 140.269531 50.390625 Z M 163.671875 51.542969 C 157.492188 51.792969 150.300781 52.8125 142.511719 54.535156 C 144.675781 58.78125 146.625 63.476562 148.304688 68.449219 C 149.988281 73.425781 151.257812 78.316406 152.082031 82.996094 C 159.308594 79.667969 165.695312 76.136719 170.765625 72.613281 C 170.5625 68.945312 169.839844 65.261719 168.625 61.601562 C 167.414062 57.941406 165.742188 54.582031 163.671875 51.542969 Z M 137.960938 55.628906 C 133.339844 56.769531 128.601562 58.195312 123.695312 59.828125 C 118.851562 61.472656 114.191406 63.246094 109.828125 65.082031 C 110.628906 69.878906 111.898438 74.921875 113.660156 80.097656 C 115.363281 85.257812 117.445312 90.070312 119.6875 94.363281 C 124.285156 93.1875 129.050781 91.800781 133.894531 90.15625 C 138.800781 88.519531 143.421875 86.769531 147.796875 84.878906 C 146.984375 80.140625 145.726562 75.035156 143.988281 69.898438 C 142.226562 64.722656 140.207031 59.925781 137.960938 55.628906 Z M 105.53125 67.019531 C 98.28125 70.316406 91.953125 73.859375 86.882812 77.378906 C 87.089844 81.050781 87.773438 84.757812 89.023438 88.394531 C 90.238281 92.054688 91.910156 95.410156 93.980469 98.449219 C 100.136719 98.167969 107.324219 97.148438 115.113281 95.425781 C 112.953125 91.175781 110.988281 86.542969 109.308594 81.566406 C 107.664062 76.570312 106.394531 71.675781 105.53125 67.019531 Z M 105.53125 67.019531 "/></clipPath><linearGradient x1="0.862998" gradientTransform="matrix(3.521541,-2.339438,2.339438,3.521541,52.703915,69.632015)" y1="31.71573" x2="28.01119" gradientUnits="userSpaceOnUse" y2="-9.498504" id="5816f576e5"><stop style="stop-color:#000000;stop-opacity:1;" offset="0"/><stop style="stop-color:#000000;stop-opacity:1;" offset="0.125"/><stop style="stop-color:#000000;stop-opacity:1;" offset="0.1875"/><stop style="stop-color:#000000;stop-opacity:1;" offset="0.203125"/><stop style="stop-color:#000000;stop-opacity:1;" offset="0.210937"/><stop style="stop-color:#010100;stop-opacity:1;" offset="0.214844"/><stop style="stop-color:#030101;stop-opacity:1;" offset="0.21875"/><stop style="stop-color:#050301;stop-opacity:1;" offset="0.222656"/><stop style="stop-color:#080402;stop-opacity:1;" offset="0.226562"/><stop style="stop-color:#0a0502;stop-opacity:1;" offset="0.230469"/><stop style="stop-color:#0d0603;stop-opacity:1;" offset="0.234375"/><stop style="stop-color:#0f0704;stop-opacity:1;" offset="0.238281"/><stop style="stop-color:#110804;stop-opacity:1;" offset="0.242188"/><stop style="stop-color:#140905;stop-opacity:1;" offset="0.246094"/><stop style="stop-color:#160a05;stop-opacity:1;" offset="0.25"/><stop style="stop-color:#190b06;stop-opacity:1;" offset="0.253906"/><stop style="stop-color:#1b0d06;stop-opacity:1;" offset="0.257812"/><stop style="stop-color:#1e0e07;stop-opacity:1;" offset="0.261719"/><stop style="stop-color:#200f08;stop-opacity:1;" offset="0.265625"/><stop style="stop-color:#221008;stop-opacity:1;" offset="0.269531"/><stop style="stop-color:#251109;stop-opacity:1;" offset="0.273438"/><stop style="stop-color:#271209;stop-opacity:1;" offset="0.277344"/><stop style="stop-color:#2a130a;stop-opacity:1;" offset="0.28125"/><stop style="stop-color:#2c140a;stop-opacity:1;" offset="0.285156"/><stop style="stop-color:#2e160b;stop-opacity:1;" offset="0.289062"/><stop style="stop-color:#31170c;stop-opacity:1;" offset="0.292969"/><stop style="stop-color:#33180c;stop-opacity:1;" offset="0.296875"/><stop style="stop-color:#36190d;stop-opacity:1;" offset="0.300781"/><stop style="stop-color:#381a0d;stop-opacity:1;" offset="0.304688"/><stop style="stop-color:#3a1b0e;stop-opacity:1;" offset="0.308594"/><stop style="stop-color:#3d1c0e;stop-opacity:1;" offset="0.3125"/><stop style="stop-color:#3f1d0f;stop-opacity:1;" offset="0.316406"/><stop style="stop-color:#421e10;stop-opacity:1;" offset="0.320312"/><stop style="stop-color:#442010;stop-opacity:1;" offset="0.324219"/><stop style="stop-color:#472111;stop-opacity:1;" offset="0.328125"/><stop style="stop-color:#492211;stop-opacity:1;" offset="0.332031"/><stop style="stop-color:#4b2312;stop-opacity:1;" offset="0.335938"/><stop style="stop-color:#4e2412;stop-opacity:1;" offset="0.339844"/><stop style="stop-color:#502513;stop-opacity:1;" offset="0.34375"/><stop style="stop-color:#532614;stop-opacity:1;" offset="0.347656"/><stop style="stop-color:#552714;stop-opacity:1;" offset="0.351562"/><stop style="stop-color:#572915;stop-opacity:1;" offset="0.355469"/><stop style="stop-color:#5a2a15;stop-opacity:1;" offset="0.359375"/><stop style="stop-color:#5c2b16;stop-opacity:1;" offset="0.363281"/><stop style="stop-color:#5f2c16;stop-opacity:1;" offset="0.367188"/><stop style="stop-color:#612d17;stop-opacity:1;" offset="0.371094"/><stop style="stop-color:#642e18;stop-opacity:1;" offset="0.375"/><stop style="stop-color:#662f18;stop-opacity:1;" offset="0.378906"/><stop style="stop-color:#683019;stop-opacity:1;" offset="0.382812"/><stop style="stop-color:#6b3119;stop-opacity:1;" offset="0.386719"/><stop style="stop-color:#6d331a;stop-opacity:1;" offset="0.390625"/><stop style="stop-color:#70341a;stop-opacity:1;" offset="0.394531"/><stop style="stop-color:#72351b;stop-opacity:1;" offset="0.398437"/><stop style="stop-color:#74361c;stop-opacity:1;" offset="0.402344"/><stop style="stop-color:#77371c;stop-opacity:1;" offset="0.40625"/><stop style="stop-color:#79381d;stop-opacity:1;" offset="0.410156"/><stop style="stop-color:#7c391d;stop-opacity:1;" offset="0.414062"/><stop style="stop-color:#7e3a1e;stop-opacity:1;" offset="0.417969"/><stop style="stop-color:#803c1e;stop-opacity:1;" offset="0.421875"/><stop style="stop-color:#833d1f;stop-opacity:1;" offset="0.425781"/><stop style="stop-color:#853e20;stop-opacity:1;" offset="0.429688"/><stop style="stop-color:#883f20;stop-opacity:1;" offset="0.433594"/><stop style="stop-color:#8a4021;stop-opacity:1;" offset="0.4375"/><stop style="stop-color:#8d4121;stop-opacity:1;" offset="0.441406"/><stop style="stop-color:#8f4222;stop-opacity:1;" offset="0.445312"/><stop style="stop-color:#914322;stop-opacity:1;" offset="0.449219"/><stop style="stop-color:#944423;stop-opacity:1;" offset="0.453125"/><stop style="stop-color:#964624;stop-opacity:1;" offset="0.457031"/><stop style="stop-color:#994724;stop-opacity:1;" offset="0.460937"/><stop style="stop-color:#9b4825;stop-opacity:1;" offset="0.464844"/><stop style="stop-color:#9d4925;stop-opacity:1;" offset="0.46875"/><stop style="stop-color:#a04a26;stop-opacity:1;" offset="0.472656"/><stop style="stop-color:#a24b27;stop-opacity:1;" offset="0.476562"/><stop style="stop-color:#a54c27;stop-opacity:1;" offset="0.480469"/><stop style="stop-color:#a74d28;stop-opacity:1;" offset="0.484375"/><stop style="stop-color:#aa4f28;stop-opacity:1;" offset="0.488281"/><stop style="stop-color:#ac5029;stop-opacity:1;" offset="0.492187"/><stop style="stop-color:#ae5129;stop-opacity:1;" offset="0.496094"/><stop style="stop-color:#b1522a;stop-opacity:1;" offset="0.5"/><stop style="stop-color:#b1522a;stop-opacity:1;" offset="0.591585"/><stop style="stop-color:#b1522a;stop-opacity:1;" offset="1"/></linearGradient><clipPath id="746c51db83"><path d="M 18.054688 60.246094 L 128.863281 60.246094 L 128.863281 95.574219 L 18.054688 95.574219 Z M 18.054688 60.246094 "/></clipPath><clipPath id="d36213bc5e"><path d="M 128.78125 72.972656 L 128.78125 82.847656 C 128.78125 86.222656 127.441406 89.460938 125.054688 91.847656 C 122.664062 94.234375 119.429688 95.574219 116.054688 95.574219 L 30.78125 95.574219 C 27.40625 95.574219 24.167969 94.234375 21.78125 91.847656 C 19.394531 89.460938 18.054688 86.222656 18.054688 82.847656 L 18.054688 72.972656 C 18.054688 69.597656 19.394531 66.363281 21.78125 63.976562 C 24.167969 61.589844 27.40625 60.246094 30.78125 60.246094 L 116.054688 60.246094 C 119.429688 60.246094 122.664062 61.589844 125.054688 63.976562 C 127.441406 66.363281 128.78125 69.597656 128.78125 72.972656 Z M 128.78125 72.972656 "/></clipPath><clipPath id="c0c5b3044b"><path d="M 0.0546875 0.246094 L 110.863281 0.246094 L 110.863281 35.574219 L 0.0546875 35.574219 Z M 0.0546875 0.246094 "/></clipPath><clipPath id="d03bdfb94e"><path d="M 110.78125 12.972656 L 110.78125 22.847656 C 110.78125 26.222656 109.441406 29.460938 107.054688 31.847656 C 104.664062 34.234375 101.429688 35.574219 98.054688 35.574219 L 12.78125 35.574219 C 9.40625 35.574219 6.167969 34.234375 3.78125 31.847656 C 1.394531 29.460938 0.0546875 26.222656 0.0546875 22.847656 L 0.0546875 12.972656 C 0.0546875 9.597656 1.394531 6.363281 3.78125 3.976562 C 6.167969 1.589844 9.40625 0.246094 12.78125 0.246094 L 98.054688 0.246094 C 101.429688 0.246094 104.664062 1.589844 107.054688 3.976562 C 109.441406 6.363281 110.78125 9.597656 110.78125 12.972656 Z M 110.78125 12.972656 "/></clipPath><clipPath id="41fa362155"><rect x="0" width="111" y="0" height="36"/></clipPath><clipPath id="bcb7f6d530"><rect x="0" width="110" y="0" height="41"/></clipPath></defs><g id="305d0a8234"><g clip-rule="nonzero" clip-path="url(#4977739cdf)"><g clip-rule="nonzero" clip-path="url(#25c830d6a2)"><g clip-rule="nonzero" clip-path="url(#17f329f2a6)"><g clip-rule="nonzero" clip-path="url(#97808b981b)"><path style=" stroke:none;fill-rule:nonzero;fill:url(#5816f576e5);" d="M 23.414062 56.28125 L 105.203125 179.398438 L 234.238281 93.675781 L 152.449219 -29.4375 Z M 23.414062 56.28125 "/></g></g></g></g><g clip-rule="nonzero" clip-path="url(#746c51db83)"><g clip-rule="nonzero" clip-path="url(#d36213bc5e)"><g transform="matrix(1,0,0,1,18,60)"><g clip-path="url(#41fa362155)"><g clip-rule="nonzero" clip-path="url(#c0c5b3044b)"><g clip-rule="nonzero" clip-path="url(#d03bdfb94e)"><path style=" stroke:none;fill-rule:nonzero;fill:#ffffff;fill-opacity:1;" d="M 0.0546875 0.246094 L 110.722656 0.246094 L 110.722656 35.574219 L 0.0546875 35.574219 Z M 0.0546875 0.246094 "/></g></g></g></g></g></g><g transform="matrix(1,0,0,1,23,58)"><g clip-path="url(#bcb7f6d530)"><g style="fill:#e11d48;fill-opacity:0.4;"><g transform="translate(2.25857, 32.217859)"><path style="stroke:none" d="M 15.359375 -14.265625 C 18.847656 -13.859375 21.332031 -13.101562 22.8125 -12 C 24.300781 -10.90625 25.046875 -9.257812 25.046875 -7.0625 C 25.046875 -4.875 23.96875 -3.097656 21.8125 -1.734375 C 19.65625 -0.367188 16.796875 0.3125 13.234375 0.3125 C 9.679688 0.3125 6.914062 -0.335938 4.9375 -1.640625 C 2.96875 -2.953125 1.984375 -4.570312 1.984375 -6.5 C 1.984375 -6.96875 2.226562 -7.203125 2.71875 -7.203125 L 9.28125 -7.203125 C 9.726562 -7.203125 10.085938 -7.0625 10.359375 -6.78125 C 10.960938 -6.207031 12 -5.921875 13.46875 -5.921875 C 15.488281 -5.921875 16.5 -6.226562 16.5 -6.84375 C 16.5 -7.226562 16.175781 -7.53125 15.53125 -7.75 C 14.894531 -7.976562 13.628906 -8.195312 11.734375 -8.40625 C 5.703125 -9.132812 2.6875 -11.453125 2.6875 -15.359375 C 2.6875 -17.546875 3.65625 -19.316406 5.59375 -20.671875 C 7.539062 -22.023438 10.140625 -22.703125 13.390625 -22.703125 C 16.640625 -22.703125 19.265625 -21.992188 21.265625 -20.578125 C 23.273438 -19.160156 24.28125 -17.664062 24.28125 -16.09375 C 24.28125 -15.875 24.207031 -15.703125 24.0625 -15.578125 C 23.925781 -15.453125 23.742188 -15.390625 23.515625 -15.390625 L 16.625 -15.390625 C 16.25 -15.390625 15.921875 -15.515625 15.640625 -15.765625 C 15.128906 -16.234375 14.363281 -16.46875 13.34375 -16.46875 C 11.90625 -16.46875 11.1875 -16.171875 11.1875 -15.578125 C 11.1875 -15.253906 11.460938 -15 12.015625 -14.8125 C 12.578125 -14.632812 13.691406 -14.453125 15.359375 -14.265625 Z M 15.359375 -14.265625 "/></g></g><g style="fill:#e11d48;fill-opacity:1;"><g transform="translate(0.844775, 30.804066)"><path style="stroke:none" d="M 15.359375 -14.265625 C 18.847656 -13.859375 21.332031 -13.101562 22.8125 -12 C 24.300781 -10.90625 25.046875 -9.257812 25.046875 -7.0625 C 25.046875 -4.875 23.96875 -3.097656 21.8125 -1.734375 C 19.65625 -0.367188 16.796875 0.3125 13.234375 0.3125 C 9.679688 0.3125 6.914062 -0.335938 4.9375 -1.640625 C 2.96875 -2.953125 1.984375 -4.570312 1.984375 -6.5 C 1.984375 -6.96875 2.226562 -7.203125 2.71875 -7.203125 L 9.28125 -7.203125 C 9.726562 -7.203125 10.085938 -7.0625 10.359375 -6.78125 C 10.960938 -6.207031 12 -5.921875 13.46875 -5.921875 C 15.488281 -5.921875 16.5 -6.226562 16.5 -6.84375 C 16.5 -7.226562 16.175781 -7.53125 15.53125 -7.75 C 14.894531 -7.976562 13.628906 -8.195312 11.734375 -8.40625 C 5.703125 -9.132812 2.6875 -11.453125 2.6875 -15.359375 C 2.6875 -17.546875 3.65625 -19.316406 5.59375 -20.671875 C 7.539062 -22.023438 10.140625 -22.703125 13.390625 -22.703125 C 16.640625 -22.703125 19.265625 -21.992188 21.265625 -20.578125 C 23.273438 -19.160156 24.28125 -17.664062 24.28125 -16.09375 C 24.28125 -15.875 24.207031 -15.703125 24.0625 -15.578125 C 23.925781 -15.453125 23.742188 -15.390625 23.515625 -15.390625 L 16.625 -15.390625 C 16.25 -15.390625 15.921875 -15.515625 15.640625 -15.765625 C 15.128906 -16.234375 14.363281 -16.46875 13.34375 -16.46875 C 11.90625 -16.46875 11.1875 -16.171875 11.1875 -15.578125 C 11.1875 -15.253906 11.460938 -15 12.015625 -14.8125 C 12.578125 -14.632812 13.691406 -14.453125 15.359375 -14.265625 Z M 15.359375 -14.265625 "/></g></g><g style="fill:#e11d48;fill-opacity:0.4;"><g transform="translate(29.449406, 32.217859)"><path style="stroke:none" d="M 25.78125 -7.03125 C 25.78125 -2.34375 22.773438 0 16.765625 0 L 3.578125 0 C 3.347656 0 3.144531 -0.0820312 2.96875 -0.25 C 2.800781 -0.425781 2.71875 -0.628906 2.71875 -0.859375 L 2.71875 -21.53125 C 2.71875 -21.757812 2.800781 -21.957031 2.96875 -22.125 C 3.144531 -22.300781 3.347656 -22.390625 3.578125 -22.390625 L 16.4375 -22.390625 C 19.46875 -22.390625 21.703125 -21.835938 23.140625 -20.734375 C 24.578125 -19.640625 25.296875 -17.984375 25.296875 -15.765625 L 25.296875 -15.671875 C 25.296875 -14.648438 25.019531 -13.773438 24.46875 -13.046875 C 23.914062 -12.328125 23.335938 -11.867188 22.734375 -11.671875 C 23.566406 -11.421875 24.28125 -10.863281 24.875 -10 C 25.476562 -9.132812 25.78125 -8.144531 25.78125 -7.03125 Z M 11.03125 -8.640625 L 11.03125 -5.5 L 15.671875 -5.5 C 16.160156 -5.5 16.523438 -5.664062 16.765625 -6 C 17.015625 -6.332031 17.140625 -6.695312 17.140625 -7.09375 L 17.140625 -7.125 C 17.140625 -7.53125 17.003906 -7.882812 16.734375 -8.1875 C 16.472656 -8.488281 16.117188 -8.640625 15.671875 -8.640625 Z M 16.28125 -14.4375 C 16.507812 -14.75 16.625 -15.097656 16.625 -15.484375 C 16.625 -15.867188 16.507812 -16.195312 16.28125 -16.46875 C 16.0625 -16.75 15.742188 -16.890625 15.328125 -16.890625 L 11.03125 -16.890625 L 11.03125 -13.984375 L 15.328125 -13.984375 C 15.742188 -13.984375 16.0625 -14.132812 16.28125 -14.4375 Z M 16.28125 -14.4375 "/></g></g><g style="fill:#e11d48;fill-opacity:0.4;"><g transform="translate(56.638594, 32.217859)"><path style="stroke:none" d="M 23.734375 -15.828125 L 17.9375 -15.828125 L 17.9375 -6.5625 L 23.734375 -6.5625 C 23.960938 -6.5625 24.160156 -6.472656 24.328125 -6.296875 C 24.503906 -6.128906 24.59375 -5.925781 24.59375 -5.6875 L 24.59375 -0.859375 C 24.59375 -0.628906 24.503906 -0.425781 24.328125 -0.25 C 24.160156 -0.0820312 23.960938 0 23.734375 0 L 3.453125 0 C 3.222656 0 3.019531 -0.0820312 2.84375 -0.25 C 2.675781 -0.425781 2.59375 -0.628906 2.59375 -0.859375 L 2.59375 -5.6875 C 2.59375 -5.925781 2.675781 -6.128906 2.84375 -6.296875 C 3.019531 -6.472656 3.222656 -6.5625 3.453125 -6.5625 L 9.3125 -6.5625 L 9.3125 -15.828125 L 3.453125 -15.828125 C 3.222656 -15.828125 3.019531 -15.910156 2.84375 -16.078125 C 2.675781 -16.253906 2.59375 -16.460938 2.59375 -16.703125 L 2.59375 -21.53125 C 2.59375 -21.757812 2.675781 -21.957031 2.84375 -22.125 C 3.019531 -22.300781 3.222656 -22.390625 3.453125 -22.390625 L 23.734375 -22.390625 C 23.960938 -22.390625 24.160156 -22.300781 24.328125 -22.125 C 24.503906 -21.957031 24.59375 -21.757812 24.59375 -21.53125 L 24.59375 -16.703125 C 24.59375 -16.460938 24.503906 -16.253906 24.328125 -16.078125 C 24.160156 -15.910156 23.960938 -15.828125 23.734375 -15.828125 Z M 23.734375 -15.828125 "/></g></g><g style="fill:#e11d48;fill-opacity:0.4;"><g transform="translate(83.827783, 32.217859)"><path style="stroke:none" d="M 23.890625 -6.5625 C 24.128906 -6.5625 24.332031 -6.472656 24.5 -6.296875 C 24.664062 -6.128906 24.75 -5.925781 24.75 -5.6875 L 24.75 -0.859375 C 24.75 -0.628906 24.664062 -0.425781 24.5 -0.25 C 24.332031 -0.0820312 24.128906 0 23.890625 0 L 3.359375 0 C 3.117188 0 2.914062 -0.0820312 2.75 -0.25 C 2.582031 -0.425781 2.5 -0.628906 2.5 -0.859375 L 2.5 -5.46875 C 2.5 -5.957031 2.65625 -6.332031 2.96875 -6.59375 L 13.078125 -15.828125 L 4.03125 -15.828125 C 3.789062 -15.828125 3.585938 -15.910156 3.421875 -16.078125 C 3.253906 -16.253906 3.171875 -16.460938 3.171875 -16.703125 L 3.171875 -21.53125 C 3.171875 -21.757812 3.253906 -21.957031 3.421875 -22.125 C 3.585938 -22.300781 3.789062 -22.390625 4.03125 -22.390625 L 23.21875 -22.390625 C 23.457031 -22.390625 23.660156 -22.300781 23.828125 -22.125 C 23.992188 -21.957031 24.078125 -21.757812 24.078125 -21.53125 L 24.078125 -16.953125 C 24.078125 -16.503906 23.941406 -16.148438 23.671875 -15.890625 L 13.6875 -6.5625 Z M 23.890625 -6.5625 "/></g></g><g style="fill:#000000;fill-opacity:1;"><g transform="translate(28.035611, 30.804066)"><path style="stroke:none" d="M 25.78125 -7.03125 C 25.78125 -2.34375 22.773438 0 16.765625 0 L 3.578125 0 C 3.347656 0 3.144531 -0.0820312 2.96875 -0.25 C 2.800781 -0.425781 2.71875 -0.628906 2.71875 -0.859375 L 2.71875 -21.53125 C 2.71875 -21.757812 2.800781 -21.957031 2.96875 -22.125 C 3.144531 -22.300781 3.347656 -22.390625 3.578125 -22.390625 L 16.4375 -22.390625 C 19.46875 -22.390625 21.703125 -21.835938 23.140625 -20.734375 C 24.578125 -19.640625 25.296875 -17.984375 25.296875 -15.765625 L 25.296875 -15.671875 C 25.296875 -14.648438 25.019531 -13.773438 24.46875 -13.046875 C 23.914062 -12.328125 23.335938 -11.867188 22.734375 -11.671875 C 23.566406 -11.421875 24.28125 -10.863281 24.875 -10 C 25.476562 -9.132812 25.78125 -8.144531 25.78125 -7.03125 Z M 11.03125 -8.640625 L 11.03125 -5.5 L 15.671875 -5.5 C 16.160156 -5.5 16.523438 -5.664062 16.765625 -6 C 17.015625 -6.332031 17.140625 -6.695312 17.140625 -7.09375 L 17.140625 -7.125 C 17.140625 -7.53125 17.003906 -7.882812 16.734375 -8.1875 C 16.472656 -8.488281 16.117188 -8.640625 15.671875 -8.640625 Z M 16.28125 -14.4375 C 16.507812 -14.75 16.625 -15.097656 16.625 -15.484375 C 16.625 -15.867188 16.507812 -16.195312 16.28125 -16.46875 C 16.0625 -16.75 15.742188 -16.890625 15.328125 -16.890625 L 11.03125 -16.890625 L 11.03125 -13.984375 L 15.328125 -13.984375 C 15.742188 -13.984375 16.0625 -14.132812 16.28125 -14.4375 Z M 16.28125 -14.4375 "/></g></g><g style="fill:#000000;fill-opacity:1;"><g transform="translate(55.224799, 30.804066)"><path style="stroke:none" d="M 23.734375 -15.828125 L 17.9375 -15.828125 L 17.9375 -6.5625 L 23.734375 -6.5625 C 23.960938 -6.5625 24.160156 -6.472656 24.328125 -6.296875 C 24.503906 -6.128906 24.59375 -5.925781 24.59375 -5.6875 L 24.59375 -0.859375 C 24.59375 -0.628906 24.503906 -0.425781 24.328125 -0.25 C 24.160156 -0.0820312 23.960938 0 23.734375 0 L 3.453125 0 C 3.222656 0 3.019531 -0.0820312 2.84375 -0.25 C 2.675781 -0.425781 2.59375 -0.628906 2.59375 -0.859375 L 2.59375 -5.6875 C 2.59375 -5.925781 2.675781 -6.128906 2.84375 -6.296875 C 3.019531 -6.472656 3.222656 -6.5625 3.453125 -6.5625 L 9.3125 -6.5625 L 9.3125 -15.828125 L 3.453125 -15.828125 C 3.222656 -15.828125 3.019531 -15.910156 2.84375 -16.078125 C 2.675781 -16.253906 2.59375 -16.460938 2.59375 -16.703125 L 2.59375 -21.53125 C 2.59375 -21.757812 2.675781 -21.957031 2.84375 -22.125 C 3.019531 -22.300781 3.222656 -22.390625 3.453125 -22.390625 L 23.734375 -22.390625 C 23.960938 -22.390625 24.160156 -22.300781 24.328125 -22.125 C 24.503906 -21.957031 24.59375 -21.757812 24.59375 -21.53125 L 24.59375 -16.703125 C 24.59375 -16.460938 24.503906 -16.253906 24.328125 -16.078125 C 24.160156 -15.910156 23.960938 -15.828125 23.734375 -15.828125 Z M 23.734375 -15.828125 "/></g></g><g style="fill:#000000;fill-opacity:1;"><g transform="translate(82.413988, 30.804066)"><path style="stroke:none" d="M 23.890625 -6.5625 C 24.128906 -6.5625 24.332031 -6.472656 24.5 -6.296875 C 24.664062 -6.128906 24.75 -5.925781 24.75 -5.6875 L 24.75 -0.859375 C 24.75 -0.628906 24.664062 -0.425781 24.5 -0.25 C 24.332031 -0.0820312 24.128906 0 23.890625 0 L 3.359375 0 C 3.117188 0 2.914062 -0.0820312 2.75 -0.25 C 2.582031 -0.425781 2.5 -0.628906 2.5 -0.859375 L 2.5 -5.46875 C 2.5 -5.957031 2.65625 -6.332031 2.96875 -6.59375 L 13.078125 -15.828125 L 4.03125 -15.828125 C 3.789062 -15.828125 3.585938 -15.910156 3.421875 -16.078125 C 3.253906 -16.253906 3.171875 -16.460938 3.171875 -16.703125 L 3.171875 -21.53125 C 3.171875 -21.757812 3.253906 -21.957031 3.421875 -22.125 C 3.585938 -22.300781 3.789062 -22.390625 4.03125 -22.390625 L 23.21875 -22.390625 C 23.457031 -22.390625 23.660156 -22.300781 23.828125 -22.125 C 23.992188 -21.957031 24.078125 -21.757812 24.078125 -21.53125 L 24.078125 -16.953125 C 24.078125 -16.503906 23.941406 -16.148438 23.671875 -15.890625 L 13.6875 -6.5625 Z M 23.890625 -6.5625 "/></g></g></g></g></g></svg>