<svg xmlns="http://www.w3.org/2000/svg" xmlns:xlink="http://www.w3.org/1999/xlink" width="448" zoomAndPan="magnify" viewBox="0 0 336 150.749998" height="201" preserveAspectRatio="xMidYMid meet" version="1.2"><defs><clipPath id="faad2950cc"><path d="M 197 28 L 317 28 L 317 122 L 197 122 Z M 197 28 "/></clipPath><clipPath id="d80e2b979a"><path d="M 178.238281 68.3125 L 281.144531 -0.0507812 L 335.421875 81.652344 L 232.515625 150.015625 Z M 178.238281 68.3125 "/></clipPath><clipPath id="73b6a54c92"><path d="M 178.238281 68.3125 L 281.144531 -0.0507812 L 335.421875 81.652344 L 232.515625 150.015625 Z M 178.238281 68.3125 "/></clipPath><clipPath id="f70b3e9544"><path d="M 241.886719 30.871094 C 254.066406 26.742188 266.773438 27.992188 277.445312 33.285156 C 283.855469 36.441406 289.511719 41.058594 293.910156 46.914062 C 305.683594 46.757812 313.863281 49.445312 315.765625 55.136719 C 317.703125 60.800781 312.824219 67.898438 303.328125 74.921875 C 303.328125 82.179688 301.617188 89.304688 298.464844 95.714844 C 293.167969 106.386719 283.773438 115.015625 271.597656 119.144531 C 259.429688 123.21875 246.746094 122 236.070312 116.707031 L 236.035156 116.730469 C 229.640625 113.519531 223.984375 108.902344 219.609375 103.078125 C 207.800781 103.257812 199.628906 100.511719 197.71875 94.882812 C 195.816406 89.191406 200.691406 82.09375 210.191406 75.074219 C 210.167969 67.78125 211.878906 60.652344 215.054688 54.28125 C 220.347656 43.605469 229.71875 34.945312 241.886719 30.871094 Z M 296.953125 51.492188 C 298.519531 54.15625 299.851562 57.078125 300.878906 60.152344 C 301.90625 63.226562 302.628906 66.300781 302.972656 69.421875 C 309.265625 64.375 312.535156 59.820312 311.449219 56.582031 C 310.386719 53.378906 304.996094 51.683594 296.953125 51.492188 Z M 216.53125 98.523438 C 214.976562 95.800781 213.667969 92.914062 212.605469 89.863281 C 211.578125 86.789062 210.867188 83.660156 210.484375 80.5625 C 204.191406 85.605469 200.949219 90.195312 202.046875 93.375 C 203.132812 96.613281 208.464844 98.300781 216.53125 98.523438 Z M 298.65625 78.125 C 293.574219 81.402344 287.496094 84.628906 280.746094 87.6875 C 281.382812 92.390625 281.507812 96.777344 281.265625 100.691406 C 281.011719 104.363281 280.386719 107.621094 279.375 110.375 C 285.910156 106.234375 291.058594 100.378906 294.363281 93.667969 C 296.796875 88.851562 298.261719 83.566406 298.65625 78.125 Z M 276.40625 89.558594 C 272.238281 91.308594 267.851562 92.957031 263.300781 94.507812 C 258.757812 96 254.277344 97.355469 249.902344 98.484375 C 251.9375 101.851562 254.054688 104.8125 256.207031 107.289062 C 261.253906 113.125 266.324219 116.101562 270.125 114.792969 C 273.953125 113.519531 276.199219 108.117188 276.714844 100.414062 C 276.921875 97.132812 276.832031 93.484375 276.40625 89.558594 Z M 245.28125 99.625 C 238.054688 101.28125 231.289062 102.324219 225.269531 102.816406 C 228.898438 106.90625 233.234375 110.21875 238.082031 112.628906 C 244.796875 115.9375 252.382812 117.496094 260.132812 116.863281 C 257.671875 115.300781 255.167969 113.054688 252.769531 110.285156 C 250.191406 107.328125 247.65625 103.734375 245.28125 99.625 Z M 214.863281 71.867188 C 219.945312 68.59375 225.964844 65.355469 232.734375 62.328125 C 232.132812 57.601562 231.953125 53.207031 232.230469 49.265625 C 232.480469 45.597656 233.109375 42.335938 234.121094 39.582031 C 227.570312 43.78125 222.460938 49.613281 219.132812 56.292969 L 219.097656 56.316406 C 216.71875 61.140625 215.257812 66.429688 214.863281 71.867188 Z M 237.113281 60.4375 C 241.277344 58.683594 245.609375 57.027344 250.183594 55.511719 C 254.734375 53.957031 259.242188 52.640625 263.617188 51.511719 C 261.582031 48.140625 259.441406 45.148438 257.285156 42.671875 C 252.207031 36.859375 247.195312 33.894531 243.367188 35.167969 C 239.507812 36.460938 237.320312 41.875 236.800781 49.578125 C 236.5625 52.882812 236.683594 56.507812 237.113281 60.4375 Z M 268.203125 50.390625 C 275.429688 48.738281 282.207031 47.636719 288.246094 47.175781 C 284.617188 43.089844 280.261719 39.742188 275.433594 37.363281 C 268.699219 34.023438 261.113281 32.464844 253.386719 33.128906 C 255.847656 34.695312 258.328125 36.902344 260.726562 39.671875 C 263.324219 42.667969 265.863281 46.261719 268.203125 50.390625 Z M 291.605469 51.542969 C 285.425781 51.792969 278.234375 52.8125 270.449219 54.535156 C 272.609375 58.78125 274.558594 63.476562 276.242188 68.449219 C 277.921875 73.425781 279.191406 78.316406 280.015625 82.996094 C 287.246094 79.667969 293.628906 76.136719 298.699219 72.613281 C 298.496094 68.945312 297.773438 65.261719 296.5625 61.601562 C 295.347656 57.941406 293.675781 54.582031 291.605469 51.542969 Z M 265.894531 55.628906 C 261.273438 56.769531 256.535156 58.195312 251.628906 59.828125 C 246.785156 61.472656 242.128906 63.246094 237.761719 65.082031 C 238.5625 69.878906 239.832031 74.921875 241.59375 80.097656 C 243.300781 85.257812 245.378906 90.070312 247.621094 94.363281 C 252.222656 93.1875 256.984375 91.800781 261.828125 90.15625 C 266.734375 88.519531 271.355469 86.769531 275.734375 84.878906 C 274.921875 80.140625 273.660156 75.035156 271.921875 69.898438 C 270.160156 64.722656 268.140625 59.925781 265.894531 55.628906 Z M 233.46875 67.019531 C 226.214844 70.316406 219.890625 73.859375 214.816406 77.378906 C 215.023438 81.050781 215.710938 84.757812 216.957031 88.394531 C 218.171875 92.054688 219.84375 95.410156 221.914062 98.449219 C 228.070312 98.167969 235.257812 97.148438 243.046875 95.425781 C 240.886719 91.175781 238.921875 86.542969 237.242188 81.566406 C 235.597656 76.570312 234.328125 71.675781 233.46875 67.019531 Z M 233.46875 67.019531 "/></clipPath><linearGradient x1="0.862998" gradientTransform="matrix(3.521541,-2.339438,2.339438,3.521541,180.638331,69.632015)" y1="31.71573" x2="28.01119" gradientUnits="userSpaceOnUse" y2="-9.498504" id="a3d7e0956f"><stop style="stop-color:#000000;stop-opacity:1;" offset="0"/><stop style="stop-color:#000000;stop-opacity:1;" offset="0.125"/><stop style="stop-color:#000000;stop-opacity:1;" offset="0.1875"/><stop style="stop-color:#000000;stop-opacity:1;" offset="0.203125"/><stop style="stop-color:#000000;stop-opacity:1;" offset="0.210938"/><stop style="stop-color:#010100;stop-opacity:1;" offset="0.214844"/><stop style="stop-color:#030101;stop-opacity:1;" offset="0.21875"/><stop style="stop-color:#050301;stop-opacity:1;" offset="0.222656"/><stop style="stop-color:#080402;stop-opacity:1;" offset="0.226563"/><stop style="stop-color:#0a0502;stop-opacity:1;" offset="0.230469"/><stop style="stop-color:#0d0603;stop-opacity:1;" offset="0.234375"/><stop style="stop-color:#0f0704;stop-opacity:1;" offset="0.238281"/><stop style="stop-color:#110804;stop-opacity:1;" offset="0.242188"/><stop style="stop-color:#140905;stop-opacity:1;" offset="0.246094"/><stop style="stop-color:#160a05;stop-opacity:1;" offset="0.25"/><stop style="stop-color:#190b06;stop-opacity:1;" offset="0.253906"/><stop style="stop-color:#1b0d06;stop-opacity:1;" offset="0.257812"/><stop style="stop-color:#1e0e07;stop-opacity:1;" offset="0.261719"/><stop style="stop-color:#200f08;stop-opacity:1;" offset="0.265625"/><stop style="stop-color:#221008;stop-opacity:1;" offset="0.269531"/><stop style="stop-color:#251109;stop-opacity:1;" offset="0.273438"/><stop style="stop-color:#271209;stop-opacity:1;" offset="0.277344"/><stop style="stop-color:#2a130a;stop-opacity:1;" offset="0.28125"/><stop style="stop-color:#2c140a;stop-opacity:1;" offset="0.285156"/><stop style="stop-color:#2e160b;stop-opacity:1;" offset="0.289062"/><stop style="stop-color:#31170c;stop-opacity:1;" offset="0.292969"/><stop style="stop-color:#33180c;stop-opacity:1;" offset="0.296875"/><stop style="stop-color:#36190d;stop-opacity:1;" offset="0.300781"/><stop style="stop-color:#381a0d;stop-opacity:1;" offset="0.304688"/><stop style="stop-color:#3a1b0e;stop-opacity:1;" offset="0.308594"/><stop style="stop-color:#3d1c0e;stop-opacity:1;" offset="0.3125"/><stop style="stop-color:#3f1d0f;stop-opacity:1;" offset="0.316406"/><stop style="stop-color:#421e10;stop-opacity:1;" offset="0.320313"/><stop style="stop-color:#442010;stop-opacity:1;" offset="0.324219"/><stop style="stop-color:#472111;stop-opacity:1;" offset="0.328125"/><stop style="stop-color:#492211;stop-opacity:1;" offset="0.332031"/><stop style="stop-color:#4b2312;stop-opacity:1;" offset="0.335938"/><stop style="stop-color:#4e2412;stop-opacity:1;" offset="0.339844"/><stop style="stop-color:#502513;stop-opacity:1;" offset="0.34375"/><stop style="stop-color:#532614;stop-opacity:1;" offset="0.347656"/><stop style="stop-color:#552714;stop-opacity:1;" offset="0.351562"/><stop style="stop-color:#572915;stop-opacity:1;" offset="0.355469"/><stop style="stop-color:#5a2a15;stop-opacity:1;" offset="0.359375"/><stop style="stop-color:#5c2b16;stop-opacity:1;" offset="0.363281"/><stop style="stop-color:#5f2c16;stop-opacity:1;" offset="0.367188"/><stop style="stop-color:#612d17;stop-opacity:1;" offset="0.371094"/><stop style="stop-color:#642e18;stop-opacity:1;" offset="0.375"/><stop style="stop-color:#662f18;stop-opacity:1;" offset="0.378906"/><stop style="stop-color:#683019;stop-opacity:1;" offset="0.382812"/><stop style="stop-color:#6b3119;stop-opacity:1;" offset="0.386719"/><stop style="stop-color:#6d331a;stop-opacity:1;" offset="0.390625"/><stop style="stop-color:#70341a;stop-opacity:1;" offset="0.394531"/><stop style="stop-color:#72351b;stop-opacity:1;" offset="0.398438"/><stop style="stop-color:#74361c;stop-opacity:1;" offset="0.402344"/><stop style="stop-color:#77371c;stop-opacity:1;" offset="0.40625"/><stop style="stop-color:#79381d;stop-opacity:1;" offset="0.410156"/><stop style="stop-color:#7c391d;stop-opacity:1;" offset="0.414063"/><stop style="stop-color:#7e3a1e;stop-opacity:1;" offset="0.417969"/><stop style="stop-color:#803c1e;stop-opacity:1;" offset="0.421875"/><stop style="stop-color:#833d1f;stop-opacity:1;" offset="0.425781"/><stop style="stop-color:#853e20;stop-opacity:1;" offset="0.429688"/><stop style="stop-color:#883f20;stop-opacity:1;" offset="0.433594"/><stop style="stop-color:#8a4021;stop-opacity:1;" offset="0.4375"/><stop style="stop-color:#8d4121;stop-opacity:1;" offset="0.441406"/><stop style="stop-color:#8f4222;stop-opacity:1;" offset="0.445312"/><stop style="stop-color:#914322;stop-opacity:1;" offset="0.449219"/><stop style="stop-color:#944423;stop-opacity:1;" offset="0.453125"/><stop style="stop-color:#964624;stop-opacity:1;" offset="0.457031"/><stop style="stop-color:#994724;stop-opacity:1;" offset="0.460938"/><stop style="stop-color:#9b4825;stop-opacity:1;" offset="0.464844"/><stop style="stop-color:#9d4925;stop-opacity:1;" offset="0.46875"/><stop style="stop-color:#a04a26;stop-opacity:1;" offset="0.472656"/><stop style="stop-color:#a24b27;stop-opacity:1;" offset="0.476562"/><stop style="stop-color:#a54c27;stop-opacity:1;" offset="0.480469"/><stop style="stop-color:#a74d28;stop-opacity:1;" offset="0.484375"/><stop style="stop-color:#aa4f28;stop-opacity:1;" offset="0.488281"/><stop style="stop-color:#ac5029;stop-opacity:1;" offset="0.492187"/><stop style="stop-color:#ae5129;stop-opacity:1;" offset="0.496094"/><stop style="stop-color:#b1522a;stop-opacity:1;" offset="0.5"/><stop style="stop-color:#b1522a;stop-opacity:1;" offset="0.591585"/><stop style="stop-color:#b1522a;stop-opacity:1;" offset="1"/></linearGradient><clipPath id="5179fd472d"><path d="M 0.910156 61.941406 L 257.164062 61.941406 L 257.164062 97.269531 L 0.910156 97.269531 Z M 0.910156 61.941406 "/></clipPath><clipPath id="47fff6ca55"><path d="M 257.109375 74.671875 L 257.109375 84.542969 C 257.109375 87.917969 255.765625 91.15625 253.378906 93.542969 C 250.992188 95.929688 247.757812 97.269531 244.378906 97.269531 L 13.636719 97.269531 C 10.261719 97.269531 7.023438 95.929688 4.636719 93.542969 C 2.25 91.15625 0.910156 87.917969 0.910156 84.542969 L 0.910156 74.671875 C 0.910156 71.292969 2.25 68.058594 4.636719 65.671875 C 7.023438 63.285156 10.261719 61.941406 13.636719 61.941406 L 244.378906 61.941406 C 247.757812 61.941406 250.992188 63.285156 253.378906 65.671875 C 255.765625 68.058594 257.109375 71.292969 257.109375 74.671875 Z M 257.109375 74.671875 "/></clipPath><clipPath id="a7ab366309"><path d="M 0.910156 0.941406 L 257.132812 0.941406 L 257.132812 36.269531 L 0.910156 36.269531 Z M 0.910156 0.941406 "/></clipPath><clipPath id="a44738156a"><path d="M 257.109375 13.671875 L 257.109375 23.542969 C 257.109375 26.917969 255.765625 30.15625 253.378906 32.542969 C 250.992188 34.929688 247.757812 36.269531 244.378906 36.269531 L 13.636719 36.269531 C 10.261719 36.269531 7.023438 34.929688 4.636719 32.542969 C 2.25 30.15625 0.910156 26.917969 0.910156 23.542969 L 0.910156 13.671875 C 0.910156 10.292969 2.25 7.058594 4.636719 4.671875 C 7.023438 2.285156 10.261719 0.941406 13.636719 0.941406 L 244.378906 0.941406 C 247.757812 0.941406 250.992188 2.285156 253.378906 4.671875 C 255.765625 7.058594 257.109375 10.292969 257.109375 13.671875 Z M 257.109375 13.671875 "/></clipPath><clipPath id="359d781e1f"><rect x="0" width="258" y="0" height="37"/></clipPath><clipPath id="9df5189ce8"><rect x="0" width="246" y="0" height="41"/></clipPath></defs><g id="78a32e389c"><g clip-rule="nonzero" clip-path="url(#faad2950cc)"><g clip-rule="nonzero" clip-path="url(#d80e2b979a)"><g clip-rule="nonzero" clip-path="url(#73b6a54c92)"><g clip-rule="nonzero" clip-path="url(#f70b3e9544)"><path style=" stroke:none;fill-rule:nonzero;fill:url(#a3d7e0956f);" d="M 151.347656 56.28125 L 233.136719 179.398438 L 362.171875 93.675781 L 280.382812 -29.4375 Z M 151.347656 56.28125 "/></g></g></g></g><g clip-rule="nonzero" clip-path="url(#5179fd472d)"><g clip-rule="nonzero" clip-path="url(#47fff6ca55)"><g transform="matrix(1,0,0,1,0,61)"><g clip-path="url(#359d781e1f)"><g clip-rule="nonzero" clip-path="url(#a7ab366309)"><g clip-rule="nonzero" clip-path="url(#a44738156a)"><path style=" stroke:none;fill-rule:nonzero;fill:#ffffff;fill-opacity:1;" d="M 0.910156 0.941406 L 257.164062 0.941406 L 257.164062 36.269531 L 0.910156 36.269531 Z M 0.910156 0.941406 "/></g></g></g></g></g></g><g transform="matrix(1,0,0,1,6,60)"><g clip-path="url(#9df5189ce8)"><g style="fill:#e11d48;fill-opacity:0.4;"><g transform="translate(2.090042, 31.913588)"><path style="stroke:none" d="M 15.359375 -14.265625 C 18.847656 -13.859375 21.332031 -13.101562 22.8125 -12 C 24.300781 -10.90625 25.046875 -9.257812 25.046875 -7.0625 C 25.046875 -4.875 23.96875 -3.097656 21.8125 -1.734375 C 19.65625 -0.367188 16.796875 0.3125 13.234375 0.3125 C 9.679688 0.3125 6.914062 -0.335938 4.9375 -1.640625 C 2.96875 -2.953125 1.984375 -4.570312 1.984375 -6.5 C 1.984375 -6.96875 2.226562 -7.203125 2.71875 -7.203125 L 9.28125 -7.203125 C 9.726562 -7.203125 10.085938 -7.0625 10.359375 -6.78125 C 10.960938 -6.207031 12 -5.921875 13.46875 -5.921875 C 15.488281 -5.921875 16.5 -6.226562 16.5 -6.84375 C 16.5 -7.226562 16.175781 -7.53125 15.53125 -7.75 C 14.894531 -7.976562 13.628906 -8.195312 11.734375 -8.40625 C 5.703125 -9.132812 2.6875 -11.453125 2.6875 -15.359375 C 2.6875 -17.546875 3.65625 -19.316406 5.59375 -20.671875 C 7.539062 -22.023438 10.140625 -22.703125 13.390625 -22.703125 C 16.640625 -22.703125 19.265625 -21.992188 21.265625 -20.578125 C 23.273438 -19.160156 24.28125 -17.664062 24.28125 -16.09375 C 24.28125 -15.875 24.207031 -15.703125 24.0625 -15.578125 C 23.925781 -15.453125 23.742188 -15.390625 23.515625 -15.390625 L 16.625 -15.390625 C 16.25 -15.390625 15.921875 -15.515625 15.640625 -15.765625 C 15.128906 -16.234375 14.363281 -16.46875 13.34375 -16.46875 C 11.90625 -16.46875 11.1875 -16.171875 11.1875 -15.578125 C 11.1875 -15.253906 11.460938 -15 12.015625 -14.8125 C 12.578125 -14.632812 13.691406 -14.453125 15.359375 -14.265625 Z M 15.359375 -14.265625 "/></g></g><g style="fill:#e11d48;fill-opacity:0.4;"><g transform="translate(29.279231, 31.913588)"><path style="stroke:none" d="M 17.65625 -22.390625 L 24.25 -22.390625 C 24.476562 -22.390625 24.675781 -22.300781 24.84375 -22.125 C 25.019531 -21.957031 25.109375 -21.757812 25.109375 -21.53125 L 25.109375 -0.859375 C 25.109375 -0.628906 25.019531 -0.425781 24.84375 -0.25 C 24.675781 -0.0820312 24.476562 0 24.25 0 L 17.65625 0 C 17.414062 0 17.210938 -0.0820312 17.046875 -0.25 C 16.878906 -0.425781 16.796875 -0.628906 16.796875 -0.859375 L 16.796875 -7.671875 L 10.390625 -7.671875 L 10.390625 -0.859375 C 10.390625 -0.628906 10.304688 -0.425781 10.140625 -0.25 C 9.972656 -0.0820312 9.769531 0 9.53125 0 L 2.9375 0 C 2.707031 0 2.503906 -0.078125 2.328125 -0.234375 C 2.160156 -0.398438 2.078125 -0.609375 2.078125 -0.859375 L 2.078125 -21.53125 C 2.078125 -21.757812 2.160156 -21.957031 2.328125 -22.125 C 2.503906 -22.300781 2.707031 -22.390625 2.9375 -22.390625 L 9.53125 -22.390625 C 9.769531 -22.390625 9.972656 -22.300781 10.140625 -22.125 C 10.304688 -21.957031 10.390625 -21.757812 10.390625 -21.53125 L 10.390625 -14.96875 L 16.796875 -14.96875 L 16.796875 -21.53125 C 16.796875 -21.757812 16.878906 -21.957031 17.046875 -22.125 C 17.210938 -22.300781 17.414062 -22.390625 17.65625 -22.390625 Z M 17.65625 -22.390625 "/></g></g><g style="fill:#e11d48;fill-opacity:0.4;"><g transform="translate(56.468419, 31.913588)"><path style="stroke:none" d="M 26.296875 -0.984375 C 26.335938 -0.898438 26.359375 -0.785156 26.359375 -0.640625 C 26.359375 -0.492188 26.285156 -0.347656 26.140625 -0.203125 C 26.003906 -0.0664062 25.84375 0 25.65625 0 L 18.390625 0 C 17.753906 0 17.304688 -0.265625 17.046875 -0.796875 L 14.234375 -7.125 L 11.546875 -7.125 L 11.546875 -0.859375 C 11.546875 -0.628906 11.457031 -0.425781 11.28125 -0.25 C 11.113281 -0.0820312 10.914062 0 10.6875 0 L 3.78125 0 C 3.539062 0 3.332031 -0.0820312 3.15625 -0.25 C 2.988281 -0.425781 2.90625 -0.628906 2.90625 -0.859375 L 2.90625 -21.53125 C 2.90625 -21.757812 2.988281 -21.957031 3.15625 -22.125 C 3.332031 -22.300781 3.539062 -22.390625 3.78125 -22.390625 L 16.21875 -22.390625 C 19.132812 -22.390625 21.445312 -21.695312 23.15625 -20.3125 C 24.863281 -18.925781 25.71875 -17.039062 25.71875 -14.65625 C 25.71875 -11.75 24.597656 -9.644531 22.359375 -8.34375 Z M 11.546875 -16.4375 L 11.546875 -13.046875 L 15.546875 -13.046875 C 16.015625 -13.046875 16.375 -13.203125 16.625 -13.515625 C 16.882812 -13.828125 17.015625 -14.21875 17.015625 -14.6875 C 17.015625 -15.15625 16.890625 -15.5625 16.640625 -15.90625 C 16.398438 -16.257812 16.035156 -16.4375 15.546875 -16.4375 Z M 11.546875 -16.4375 "/></g></g><g style="fill:#e11d48;fill-opacity:0.4;"><g transform="translate(83.657607, 31.913588)"><path style="stroke:none" d="M 11.1875 -6.234375 L 23.953125 -6.234375 C 24.191406 -6.234375 24.394531 -6.144531 24.5625 -5.96875 C 24.726562 -5.800781 24.8125 -5.601562 24.8125 -5.375 L 24.8125 -0.859375 C 24.8125 -0.628906 24.726562 -0.425781 24.5625 -0.25 C 24.394531 -0.0820312 24.191406 0 23.953125 0 L 3.734375 0 C 3.503906 0 3.300781 -0.0820312 3.125 -0.25 C 2.957031 -0.425781 2.875 -0.628906 2.875 -0.859375 L 2.875 -21.53125 C 2.875 -21.757812 2.957031 -21.957031 3.125 -22.125 C 3.300781 -22.300781 3.503906 -22.390625 3.734375 -22.390625 L 23.640625 -22.390625 C 23.867188 -22.390625 24.066406 -22.300781 24.234375 -22.125 C 24.410156 -21.957031 24.5 -21.757812 24.5 -21.53125 L 24.5 -17.015625 C 24.5 -16.773438 24.410156 -16.570312 24.234375 -16.40625 C 24.066406 -16.238281 23.867188 -16.15625 23.640625 -16.15625 L 11.1875 -16.15625 L 11.1875 -14.140625 L 21.875 -14.140625 C 22.113281 -14.140625 22.316406 -14.050781 22.484375 -13.875 C 22.648438 -13.707031 22.734375 -13.507812 22.734375 -13.28125 L 22.734375 -9.109375 C 22.734375 -8.878906 22.648438 -8.675781 22.484375 -8.5 C 22.316406 -8.332031 22.113281 -8.25 21.875 -8.25 L 11.1875 -8.25 Z M 11.1875 -6.234375 "/></g></g><g style="fill:#e11d48;fill-opacity:0.4;"><g transform="translate(110.846795, 31.913588)"><path style="stroke:none" d="M 15.359375 -14.265625 C 18.847656 -13.859375 21.332031 -13.101562 22.8125 -12 C 24.300781 -10.90625 25.046875 -9.257812 25.046875 -7.0625 C 25.046875 -4.875 23.96875 -3.097656 21.8125 -1.734375 C 19.65625 -0.367188 16.796875 0.3125 13.234375 0.3125 C 9.679688 0.3125 6.914062 -0.335938 4.9375 -1.640625 C 2.96875 -2.953125 1.984375 -4.570312 1.984375 -6.5 C 1.984375 -6.96875 2.226562 -7.203125 2.71875 -7.203125 L 9.28125 -7.203125 C 9.726562 -7.203125 10.085938 -7.0625 10.359375 -6.78125 C 10.960938 -6.207031 12 -5.921875 13.46875 -5.921875 C 15.488281 -5.921875 16.5 -6.226562 16.5 -6.84375 C 16.5 -7.226562 16.175781 -7.53125 15.53125 -7.75 C 14.894531 -7.976562 13.628906 -8.195312 11.734375 -8.40625 C 5.703125 -9.132812 2.6875 -11.453125 2.6875 -15.359375 C 2.6875 -17.546875 3.65625 -19.316406 5.59375 -20.671875 C 7.539062 -22.023438 10.140625 -22.703125 13.390625 -22.703125 C 16.640625 -22.703125 19.265625 -21.992188 21.265625 -20.578125 C 23.273438 -19.160156 24.28125 -17.664062 24.28125 -16.09375 C 24.28125 -15.875 24.207031 -15.703125 24.0625 -15.578125 C 23.925781 -15.453125 23.742188 -15.390625 23.515625 -15.390625 L 16.625 -15.390625 C 16.25 -15.390625 15.921875 -15.515625 15.640625 -15.765625 C 15.128906 -16.234375 14.363281 -16.46875 13.34375 -16.46875 C 11.90625 -16.46875 11.1875 -16.171875 11.1875 -15.578125 C 11.1875 -15.253906 11.460938 -15 12.015625 -14.8125 C 12.578125 -14.632812 13.691406 -14.453125 15.359375 -14.265625 Z M 15.359375 -14.265625 "/></g></g><g style="fill:#e11d48;fill-opacity:0.4;"><g transform="translate(138.035984, 31.913588)"><path style="stroke:none" d="M 17.65625 -22.390625 L 24.25 -22.390625 C 24.476562 -22.390625 24.675781 -22.300781 24.84375 -22.125 C 25.019531 -21.957031 25.109375 -21.757812 25.109375 -21.53125 L 25.109375 -0.859375 C 25.109375 -0.628906 25.019531 -0.425781 24.84375 -0.25 C 24.675781 -0.0820312 24.476562 0 24.25 0 L 17.65625 0 C 17.414062 0 17.210938 -0.0820312 17.046875 -0.25 C 16.878906 -0.425781 16.796875 -0.628906 16.796875 -0.859375 L 16.796875 -7.671875 L 10.390625 -7.671875 L 10.390625 -0.859375 C 10.390625 -0.628906 10.304688 -0.425781 10.140625 -0.25 C 9.972656 -0.0820312 9.769531 0 9.53125 0 L 2.9375 0 C 2.707031 0 2.503906 -0.078125 2.328125 -0.234375 C 2.160156 -0.398438 2.078125 -0.609375 2.078125 -0.859375 L 2.078125 -21.53125 C 2.078125 -21.757812 2.160156 -21.957031 2.328125 -22.125 C 2.503906 -22.300781 2.707031 -22.390625 2.9375 -22.390625 L 9.53125 -22.390625 C 9.769531 -22.390625 9.972656 -22.300781 10.140625 -22.125 C 10.304688 -21.957031 10.390625 -21.757812 10.390625 -21.53125 L 10.390625 -14.96875 L 16.796875 -14.96875 L 16.796875 -21.53125 C 16.796875 -21.757812 16.878906 -21.957031 17.046875 -22.125 C 17.210938 -22.300781 17.414062 -22.390625 17.65625 -22.390625 Z M 17.65625 -22.390625 "/></g></g><g style="fill:#e11d48;fill-opacity:1;"><g transform="translate(0.676248, 30.499795)"><path style="stroke:none" d="M 15.359375 -14.265625 C 18.847656 -13.859375 21.332031 -13.101562 22.8125 -12 C 24.300781 -10.90625 25.046875 -9.257812 25.046875 -7.0625 C 25.046875 -4.875 23.96875 -3.097656 21.8125 -1.734375 C 19.65625 -0.367188 16.796875 0.3125 13.234375 0.3125 C 9.679688 0.3125 6.914062 -0.335938 4.9375 -1.640625 C 2.96875 -2.953125 1.984375 -4.570312 1.984375 -6.5 C 1.984375 -6.96875 2.226562 -7.203125 2.71875 -7.203125 L 9.28125 -7.203125 C 9.726562 -7.203125 10.085938 -7.0625 10.359375 -6.78125 C 10.960938 -6.207031 12 -5.921875 13.46875 -5.921875 C 15.488281 -5.921875 16.5 -6.226562 16.5 -6.84375 C 16.5 -7.226562 16.175781 -7.53125 15.53125 -7.75 C 14.894531 -7.976562 13.628906 -8.195312 11.734375 -8.40625 C 5.703125 -9.132812 2.6875 -11.453125 2.6875 -15.359375 C 2.6875 -17.546875 3.65625 -19.316406 5.59375 -20.671875 C 7.539062 -22.023438 10.140625 -22.703125 13.390625 -22.703125 C 16.640625 -22.703125 19.265625 -21.992188 21.265625 -20.578125 C 23.273438 -19.160156 24.28125 -17.664062 24.28125 -16.09375 C 24.28125 -15.875 24.207031 -15.703125 24.0625 -15.578125 C 23.925781 -15.453125 23.742188 -15.390625 23.515625 -15.390625 L 16.625 -15.390625 C 16.25 -15.390625 15.921875 -15.515625 15.640625 -15.765625 C 15.128906 -16.234375 14.363281 -16.46875 13.34375 -16.46875 C 11.90625 -16.46875 11.1875 -16.171875 11.1875 -15.578125 C 11.1875 -15.253906 11.460938 -15 12.015625 -14.8125 C 12.578125 -14.632812 13.691406 -14.453125 15.359375 -14.265625 Z M 15.359375 -14.265625 "/></g></g><g style="fill:#e11d48;fill-opacity:1;"><g transform="translate(27.865437, 30.499795)"><path style="stroke:none" d="M 17.65625 -22.390625 L 24.25 -22.390625 C 24.476562 -22.390625 24.675781 -22.300781 24.84375 -22.125 C 25.019531 -21.957031 25.109375 -21.757812 25.109375 -21.53125 L 25.109375 -0.859375 C 25.109375 -0.628906 25.019531 -0.425781 24.84375 -0.25 C 24.675781 -0.0820312 24.476562 0 24.25 0 L 17.65625 0 C 17.414062 0 17.210938 -0.0820312 17.046875 -0.25 C 16.878906 -0.425781 16.796875 -0.628906 16.796875 -0.859375 L 16.796875 -7.671875 L 10.390625 -7.671875 L 10.390625 -0.859375 C 10.390625 -0.628906 10.304688 -0.425781 10.140625 -0.25 C 9.972656 -0.0820312 9.769531 0 9.53125 0 L 2.9375 0 C 2.707031 0 2.503906 -0.078125 2.328125 -0.234375 C 2.160156 -0.398438 2.078125 -0.609375 2.078125 -0.859375 L 2.078125 -21.53125 C 2.078125 -21.757812 2.160156 -21.957031 2.328125 -22.125 C 2.503906 -22.300781 2.707031 -22.390625 2.9375 -22.390625 L 9.53125 -22.390625 C 9.769531 -22.390625 9.972656 -22.300781 10.140625 -22.125 C 10.304688 -21.957031 10.390625 -21.757812 10.390625 -21.53125 L 10.390625 -14.96875 L 16.796875 -14.96875 L 16.796875 -21.53125 C 16.796875 -21.757812 16.878906 -21.957031 17.046875 -22.125 C 17.210938 -22.300781 17.414062 -22.390625 17.65625 -22.390625 Z M 17.65625 -22.390625 "/></g></g><g style="fill:#e11d48;fill-opacity:1;"><g transform="translate(55.054625, 30.499795)"><path style="stroke:none" d="M 26.296875 -0.984375 C 26.335938 -0.898438 26.359375 -0.785156 26.359375 -0.640625 C 26.359375 -0.492188 26.285156 -0.347656 26.140625 -0.203125 C 26.003906 -0.0664062 25.84375 0 25.65625 0 L 18.390625 0 C 17.753906 0 17.304688 -0.265625 17.046875 -0.796875 L 14.234375 -7.125 L 11.546875 -7.125 L 11.546875 -0.859375 C 11.546875 -0.628906 11.457031 -0.425781 11.28125 -0.25 C 11.113281 -0.0820312 10.914062 0 10.6875 0 L 3.78125 0 C 3.539062 0 3.332031 -0.0820312 3.15625 -0.25 C 2.988281 -0.425781 2.90625 -0.628906 2.90625 -0.859375 L 2.90625 -21.53125 C 2.90625 -21.757812 2.988281 -21.957031 3.15625 -22.125 C 3.332031 -22.300781 3.539062 -22.390625 3.78125 -22.390625 L 16.21875 -22.390625 C 19.132812 -22.390625 21.445312 -21.695312 23.15625 -20.3125 C 24.863281 -18.925781 25.71875 -17.039062 25.71875 -14.65625 C 25.71875 -11.75 24.597656 -9.644531 22.359375 -8.34375 Z M 11.546875 -16.4375 L 11.546875 -13.046875 L 15.546875 -13.046875 C 16.015625 -13.046875 16.375 -13.203125 16.625 -13.515625 C 16.882812 -13.828125 17.015625 -14.21875 17.015625 -14.6875 C 17.015625 -15.15625 16.890625 -15.5625 16.640625 -15.90625 C 16.398438 -16.257812 16.035156 -16.4375 15.546875 -16.4375 Z M 11.546875 -16.4375 "/></g></g><g style="fill:#e11d48;fill-opacity:1;"><g transform="translate(82.243813, 30.499795)"><path style="stroke:none" d="M 11.1875 -6.234375 L 23.953125 -6.234375 C 24.191406 -6.234375 24.394531 -6.144531 24.5625 -5.96875 C 24.726562 -5.800781 24.8125 -5.601562 24.8125 -5.375 L 24.8125 -0.859375 C 24.8125 -0.628906 24.726562 -0.425781 24.5625 -0.25 C 24.394531 -0.0820312 24.191406 0 23.953125 0 L 3.734375 0 C 3.503906 0 3.300781 -0.0820312 3.125 -0.25 C 2.957031 -0.425781 2.875 -0.628906 2.875 -0.859375 L 2.875 -21.53125 C 2.875 -21.757812 2.957031 -21.957031 3.125 -22.125 C 3.300781 -22.300781 3.503906 -22.390625 3.734375 -22.390625 L 23.640625 -22.390625 C 23.867188 -22.390625 24.066406 -22.300781 24.234375 -22.125 C 24.410156 -21.957031 24.5 -21.757812 24.5 -21.53125 L 24.5 -17.015625 C 24.5 -16.773438 24.410156 -16.570312 24.234375 -16.40625 C 24.066406 -16.238281 23.867188 -16.15625 23.640625 -16.15625 L 11.1875 -16.15625 L 11.1875 -14.140625 L 21.875 -14.140625 C 22.113281 -14.140625 22.316406 -14.050781 22.484375 -13.875 C 22.648438 -13.707031 22.734375 -13.507812 22.734375 -13.28125 L 22.734375 -9.109375 C 22.734375 -8.878906 22.648438 -8.675781 22.484375 -8.5 C 22.316406 -8.332031 22.113281 -8.25 21.875 -8.25 L 11.1875 -8.25 Z M 11.1875 -6.234375 "/></g></g><g style="fill:#e11d48;fill-opacity:1;"><g transform="translate(109.433002, 30.499795)"><path style="stroke:none" d="M 15.359375 -14.265625 C 18.847656 -13.859375 21.332031 -13.101562 22.8125 -12 C 24.300781 -10.90625 25.046875 -9.257812 25.046875 -7.0625 C 25.046875 -4.875 23.96875 -3.097656 21.8125 -1.734375 C 19.65625 -0.367188 16.796875 0.3125 13.234375 0.3125 C 9.679688 0.3125 6.914062 -0.335938 4.9375 -1.640625 C 2.96875 -2.953125 1.984375 -4.570312 1.984375 -6.5 C 1.984375 -6.96875 2.226562 -7.203125 2.71875 -7.203125 L 9.28125 -7.203125 C 9.726562 -7.203125 10.085938 -7.0625 10.359375 -6.78125 C 10.960938 -6.207031 12 -5.921875 13.46875 -5.921875 C 15.488281 -5.921875 16.5 -6.226562 16.5 -6.84375 C 16.5 -7.226562 16.175781 -7.53125 15.53125 -7.75 C 14.894531 -7.976562 13.628906 -8.195312 11.734375 -8.40625 C 5.703125 -9.132812 2.6875 -11.453125 2.6875 -15.359375 C 2.6875 -17.546875 3.65625 -19.316406 5.59375 -20.671875 C 7.539062 -22.023438 10.140625 -22.703125 13.390625 -22.703125 C 16.640625 -22.703125 19.265625 -21.992188 21.265625 -20.578125 C 23.273438 -19.160156 24.28125 -17.664062 24.28125 -16.09375 C 24.28125 -15.875 24.207031 -15.703125 24.0625 -15.578125 C 23.925781 -15.453125 23.742188 -15.390625 23.515625 -15.390625 L 16.625 -15.390625 C 16.25 -15.390625 15.921875 -15.515625 15.640625 -15.765625 C 15.128906 -16.234375 14.363281 -16.46875 13.34375 -16.46875 C 11.90625 -16.46875 11.1875 -16.171875 11.1875 -15.578125 C 11.1875 -15.253906 11.460938 -15 12.015625 -14.8125 C 12.578125 -14.632812 13.691406 -14.453125 15.359375 -14.265625 Z M 15.359375 -14.265625 "/></g></g><g style="fill:#e11d48;fill-opacity:1;"><g transform="translate(136.62219, 30.499795)"><path style="stroke:none" d="M 17.65625 -22.390625 L 24.25 -22.390625 C 24.476562 -22.390625 24.675781 -22.300781 24.84375 -22.125 C 25.019531 -21.957031 25.109375 -21.757812 25.109375 -21.53125 L 25.109375 -0.859375 C 25.109375 -0.628906 25.019531 -0.425781 24.84375 -0.25 C 24.675781 -0.0820312 24.476562 0 24.25 0 L 17.65625 0 C 17.414062 0 17.210938 -0.0820312 17.046875 -0.25 C 16.878906 -0.425781 16.796875 -0.628906 16.796875 -0.859375 L 16.796875 -7.671875 L 10.390625 -7.671875 L 10.390625 -0.859375 C 10.390625 -0.628906 10.304688 -0.425781 10.140625 -0.25 C 9.972656 -0.0820312 9.769531 0 9.53125 0 L 2.9375 0 C 2.707031 0 2.503906 -0.078125 2.328125 -0.234375 C 2.160156 -0.398438 2.078125 -0.609375 2.078125 -0.859375 L 2.078125 -21.53125 C 2.078125 -21.757812 2.160156 -21.957031 2.328125 -22.125 C 2.503906 -22.300781 2.707031 -22.390625 2.9375 -22.390625 L 9.53125 -22.390625 C 9.769531 -22.390625 9.972656 -22.300781 10.140625 -22.125 C 10.304688 -21.957031 10.390625 -21.757812 10.390625 -21.53125 L 10.390625 -14.96875 L 16.796875 -14.96875 L 16.796875 -21.53125 C 16.796875 -21.757812 16.878906 -21.957031 17.046875 -22.125 C 17.210938 -22.300781 17.414062 -22.390625 17.65625 -22.390625 Z M 17.65625 -22.390625 "/></g></g><g style="fill:#e11d48;fill-opacity:0.4;"><g transform="translate(165.235059, 31.913588)"><path style="stroke:none" d="M 25.78125 -7.03125 C 25.78125 -2.34375 22.773438 0 16.765625 0 L 3.578125 0 C 3.347656 0 3.144531 -0.0820312 2.96875 -0.25 C 2.800781 -0.425781 2.71875 -0.628906 2.71875 -0.859375 L 2.71875 -21.53125 C 2.71875 -21.757812 2.800781 -21.957031 2.96875 -22.125 C 3.144531 -22.300781 3.347656 -22.390625 3.578125 -22.390625 L 16.4375 -22.390625 C 19.46875 -22.390625 21.703125 -21.835938 23.140625 -20.734375 C 24.578125 -19.640625 25.296875 -17.984375 25.296875 -15.765625 L 25.296875 -15.671875 C 25.296875 -14.648438 25.019531 -13.773438 24.46875 -13.046875 C 23.914062 -12.328125 23.335938 -11.867188 22.734375 -11.671875 C 23.566406 -11.421875 24.28125 -10.863281 24.875 -10 C 25.476562 -9.132812 25.78125 -8.144531 25.78125 -7.03125 Z M 11.03125 -8.640625 L 11.03125 -5.5 L 15.671875 -5.5 C 16.160156 -5.5 16.523438 -5.664062 16.765625 -6 C 17.015625 -6.332031 17.140625 -6.695312 17.140625 -7.09375 L 17.140625 -7.125 C 17.140625 -7.53125 17.003906 -7.882812 16.734375 -8.1875 C 16.472656 -8.488281 16.117188 -8.640625 15.671875 -8.640625 Z M 16.28125 -14.4375 C 16.507812 -14.75 16.625 -15.097656 16.625 -15.484375 C 16.625 -15.867188 16.507812 -16.195312 16.28125 -16.46875 C 16.0625 -16.75 15.742188 -16.890625 15.328125 -16.890625 L 11.03125 -16.890625 L 11.03125 -13.984375 L 15.328125 -13.984375 C 15.742188 -13.984375 16.0625 -14.132812 16.28125 -14.4375 Z M 16.28125 -14.4375 "/></g></g><g style="fill:#e11d48;fill-opacity:0.4;"><g transform="translate(192.424247, 31.913588)"><path style="stroke:none" d="M 23.734375 -15.828125 L 17.9375 -15.828125 L 17.9375 -6.5625 L 23.734375 -6.5625 C 23.960938 -6.5625 24.160156 -6.472656 24.328125 -6.296875 C 24.503906 -6.128906 24.59375 -5.925781 24.59375 -5.6875 L 24.59375 -0.859375 C 24.59375 -0.628906 24.503906 -0.425781 24.328125 -0.25 C 24.160156 -0.0820312 23.960938 0 23.734375 0 L 3.453125 0 C 3.222656 0 3.019531 -0.0820312 2.84375 -0.25 C 2.675781 -0.425781 2.59375 -0.628906 2.59375 -0.859375 L 2.59375 -5.6875 C 2.59375 -5.925781 2.675781 -6.128906 2.84375 -6.296875 C 3.019531 -6.472656 3.222656 -6.5625 3.453125 -6.5625 L 9.3125 -6.5625 L 9.3125 -15.828125 L 3.453125 -15.828125 C 3.222656 -15.828125 3.019531 -15.910156 2.84375 -16.078125 C 2.675781 -16.253906 2.59375 -16.460938 2.59375 -16.703125 L 2.59375 -21.53125 C 2.59375 -21.757812 2.675781 -21.957031 2.84375 -22.125 C 3.019531 -22.300781 3.222656 -22.390625 3.453125 -22.390625 L 23.734375 -22.390625 C 23.960938 -22.390625 24.160156 -22.300781 24.328125 -22.125 C 24.503906 -21.957031 24.59375 -21.757812 24.59375 -21.53125 L 24.59375 -16.703125 C 24.59375 -16.460938 24.503906 -16.253906 24.328125 -16.078125 C 24.160156 -15.910156 23.960938 -15.828125 23.734375 -15.828125 Z M 23.734375 -15.828125 "/></g></g><g style="fill:#e11d48;fill-opacity:0.4;"><g transform="translate(219.613435, 31.913588)"><path style="stroke:none" d="M 23.890625 -6.5625 C 24.128906 -6.5625 24.332031 -6.472656 24.5 -6.296875 C 24.664062 -6.128906 24.75 -5.925781 24.75 -5.6875 L 24.75 -0.859375 C 24.75 -0.628906 24.664062 -0.425781 24.5 -0.25 C 24.332031 -0.0820312 24.128906 0 23.890625 0 L 3.359375 0 C 3.117188 0 2.914062 -0.0820312 2.75 -0.25 C 2.582031 -0.425781 2.5 -0.628906 2.5 -0.859375 L 2.5 -5.46875 C 2.5 -5.957031 2.65625 -6.332031 2.96875 -6.59375 L 13.078125 -15.828125 L 4.03125 -15.828125 C 3.789062 -15.828125 3.585938 -15.910156 3.421875 -16.078125 C 3.253906 -16.253906 3.171875 -16.460938 3.171875 -16.703125 L 3.171875 -21.53125 C 3.171875 -21.757812 3.253906 -21.957031 3.421875 -22.125 C 3.585938 -22.300781 3.789062 -22.390625 4.03125 -22.390625 L 23.21875 -22.390625 C 23.457031 -22.390625 23.660156 -22.300781 23.828125 -22.125 C 23.992188 -21.957031 24.078125 -21.757812 24.078125 -21.53125 L 24.078125 -16.953125 C 24.078125 -16.503906 23.941406 -16.148438 23.671875 -15.890625 L 13.6875 -6.5625 Z M 23.890625 -6.5625 "/></g></g><g style="fill:#000000;fill-opacity:1;"><g transform="translate(163.821265, 30.499795)"><path style="stroke:none" d="M 25.78125 -7.03125 C 25.78125 -2.34375 22.773438 0 16.765625 0 L 3.578125 0 C 3.347656 0 3.144531 -0.0820312 2.96875 -0.25 C 2.800781 -0.425781 2.71875 -0.628906 2.71875 -0.859375 L 2.71875 -21.53125 C 2.71875 -21.757812 2.800781 -21.957031 2.96875 -22.125 C 3.144531 -22.300781 3.347656 -22.390625 3.578125 -22.390625 L 16.4375 -22.390625 C 19.46875 -22.390625 21.703125 -21.835938 23.140625 -20.734375 C 24.578125 -19.640625 25.296875 -17.984375 25.296875 -15.765625 L 25.296875 -15.671875 C 25.296875 -14.648438 25.019531 -13.773438 24.46875 -13.046875 C 23.914062 -12.328125 23.335938 -11.867188 22.734375 -11.671875 C 23.566406 -11.421875 24.28125 -10.863281 24.875 -10 C 25.476562 -9.132812 25.78125 -8.144531 25.78125 -7.03125 Z M 11.03125 -8.640625 L 11.03125 -5.5 L 15.671875 -5.5 C 16.160156 -5.5 16.523438 -5.664062 16.765625 -6 C 17.015625 -6.332031 17.140625 -6.695312 17.140625 -7.09375 L 17.140625 -7.125 C 17.140625 -7.53125 17.003906 -7.882812 16.734375 -8.1875 C 16.472656 -8.488281 16.117188 -8.640625 15.671875 -8.640625 Z M 16.28125 -14.4375 C 16.507812 -14.75 16.625 -15.097656 16.625 -15.484375 C 16.625 -15.867188 16.507812 -16.195312 16.28125 -16.46875 C 16.0625 -16.75 15.742188 -16.890625 15.328125 -16.890625 L 11.03125 -16.890625 L 11.03125 -13.984375 L 15.328125 -13.984375 C 15.742188 -13.984375 16.0625 -14.132812 16.28125 -14.4375 Z M 16.28125 -14.4375 "/></g></g><g style="fill:#000000;fill-opacity:1;"><g transform="translate(191.010453, 30.499795)"><path style="stroke:none" d="M 23.734375 -15.828125 L 17.9375 -15.828125 L 17.9375 -6.5625 L 23.734375 -6.5625 C 23.960938 -6.5625 24.160156 -6.472656 24.328125 -6.296875 C 24.503906 -6.128906 24.59375 -5.925781 24.59375 -5.6875 L 24.59375 -0.859375 C 24.59375 -0.628906 24.503906 -0.425781 24.328125 -0.25 C 24.160156 -0.0820312 23.960938 0 23.734375 0 L 3.453125 0 C 3.222656 0 3.019531 -0.0820312 2.84375 -0.25 C 2.675781 -0.425781 2.59375 -0.628906 2.59375 -0.859375 L 2.59375 -5.6875 C 2.59375 -5.925781 2.675781 -6.128906 2.84375 -6.296875 C 3.019531 -6.472656 3.222656 -6.5625 3.453125 -6.5625 L 9.3125 -6.5625 L 9.3125 -15.828125 L 3.453125 -15.828125 C 3.222656 -15.828125 3.019531 -15.910156 2.84375 -16.078125 C 2.675781 -16.253906 2.59375 -16.460938 2.59375 -16.703125 L 2.59375 -21.53125 C 2.59375 -21.757812 2.675781 -21.957031 2.84375 -22.125 C 3.019531 -22.300781 3.222656 -22.390625 3.453125 -22.390625 L 23.734375 -22.390625 C 23.960938 -22.390625 24.160156 -22.300781 24.328125 -22.125 C 24.503906 -21.957031 24.59375 -21.757812 24.59375 -21.53125 L 24.59375 -16.703125 C 24.59375 -16.460938 24.503906 -16.253906 24.328125 -16.078125 C 24.160156 -15.910156 23.960938 -15.828125 23.734375 -15.828125 Z M 23.734375 -15.828125 "/></g></g><g style="fill:#000000;fill-opacity:1;"><g transform="translate(218.199641, 30.499795)"><path style="stroke:none" d="M 23.890625 -6.5625 C 24.128906 -6.5625 24.332031 -6.472656 24.5 -6.296875 C 24.664062 -6.128906 24.75 -5.925781 24.75 -5.6875 L 24.75 -0.859375 C 24.75 -0.628906 24.664062 -0.425781 24.5 -0.25 C 24.332031 -0.0820312 24.128906 0 23.890625 0 L 3.359375 0 C 3.117188 0 2.914062 -0.0820312 2.75 -0.25 C 2.582031 -0.425781 2.5 -0.628906 2.5 -0.859375 L 2.5 -5.46875 C 2.5 -5.957031 2.65625 -6.332031 2.96875 -6.59375 L 13.078125 -15.828125 L 4.03125 -15.828125 C 3.789062 -15.828125 3.585938 -15.910156 3.421875 -16.078125 C 3.253906 -16.253906 3.171875 -16.460938 3.171875 -16.703125 L 3.171875 -21.53125 C 3.171875 -21.757812 3.253906 -21.957031 3.421875 -22.125 C 3.585938 -22.300781 3.789062 -22.390625 4.03125 -22.390625 L 23.21875 -22.390625 C 23.457031 -22.390625 23.660156 -22.300781 23.828125 -22.125 C 23.992188 -21.957031 24.078125 -21.757812 24.078125 -21.53125 L 24.078125 -16.953125 C 24.078125 -16.503906 23.941406 -16.148438 23.671875 -15.890625 L 13.6875 -6.5625 Z M 23.890625 -6.5625 "/></g></g></g></g><g style="fill:#00bf63;fill-opacity:1;"><g transform="translate(12.679775, 112.044872)"><path style="stroke:none" d="M 3.859375 -4.15625 C 3.859375 -3.476562 4.15625 -3.140625 4.75 -3.140625 C 5.40625 -3.140625 5.988281 -3.535156 6.5 -4.328125 C 6.632812 -4.921875 6.890625 -5.957031 7.265625 -7.4375 C 7.648438 -8.925781 7.875 -9.84375 7.9375 -10.1875 C 8.082031 -10.851562 8.25 -11.382812 8.4375 -11.78125 C 8.625 -12.175781 8.859375 -12.375 9.140625 -12.375 C 9.660156 -12.375 10.0625 -12.253906 10.34375 -12.015625 C 10.625 -11.785156 10.765625 -11.367188 10.765625 -10.765625 C 10.765625 -10.160156 10.554688 -9.476562 10.140625 -8.71875 C 10.078125 -8.3125 10.003906 -7.882812 9.921875 -7.4375 C 9.847656 -7 9.75 -6.425781 9.625 -5.71875 C 9.5 -5.007812 9.265625 -3.800781 8.921875 -2.09375 C 10.253906 -2.632812 11.070312 -3.078125 11.375 -3.421875 C 11.675781 -3.773438 11.910156 -3.953125 12.078125 -3.953125 C 12.253906 -3.953125 12.34375 -3.773438 12.34375 -3.421875 C 12.34375 -3.078125 12.234375 -2.773438 12.015625 -2.515625 C 11.804688 -2.253906 11.476562 -1.957031 11.03125 -1.625 C 10.59375 -1.300781 9.78125 -0.882812 8.59375 -0.375 C 8 2.132812 6.921875 3.71875 5.359375 4.375 C 4.929688 4.5625 4.476562 4.65625 4 4.65625 C 2.988281 4.65625 2.179688 4.460938 1.578125 4.078125 C 0.890625 3.640625 0.546875 3 0.546875 2.15625 C 0.546875 1.394531 1.675781 0.59375 3.9375 -0.25 C 5.070312 -0.664062 5.753906 -0.910156 5.984375 -0.984375 C 5.984375 -1.253906 6.015625 -1.601562 6.078125 -2.03125 C 5.367188 -1.632812 4.597656 -1.4375 3.765625 -1.4375 C 2.941406 -1.4375 2.316406 -1.6875 1.890625 -2.1875 C 1.472656 -2.695312 1.265625 -3.394531 1.265625 -4.28125 C 1.265625 -4.695312 1.335938 -5.140625 1.484375 -5.609375 C 1.628906 -6.085938 1.785156 -6.570312 1.953125 -7.0625 C 2.128906 -7.5625 2.285156 -8.046875 2.421875 -8.515625 C 2.566406 -8.992188 2.640625 -9.4375 2.640625 -9.84375 C 2.640625 -10.601562 2.410156 -10.984375 1.953125 -10.984375 C 1.796875 -10.984375 1.648438 -10.9375 1.515625 -10.84375 C 1.390625 -10.75 1.257812 -10.648438 1.125 -10.546875 C 1 -10.453125 0.867188 -10.359375 0.734375 -10.265625 C 0.597656 -10.171875 0.441406 -10.125 0.265625 -10.125 C 0.0859375 -10.125 0 -10.28125 0 -10.59375 C 0 -11.207031 0.285156 -11.710938 0.859375 -12.109375 C 1.421875 -12.515625 2.082031 -12.71875 2.84375 -12.71875 C 3.613281 -12.71875 4.191406 -12.4375 4.578125 -11.875 C 4.867188 -11.457031 5.015625 -10.984375 5.015625 -10.453125 C 5.015625 -9.921875 4.953125 -9.40625 4.828125 -8.90625 C 4.710938 -8.414062 4.582031 -7.910156 4.4375 -7.390625 C 4.289062 -6.878906 4.15625 -6.351562 4.03125 -5.8125 C 3.914062 -5.269531 3.859375 -4.71875 3.859375 -4.15625 Z M 4.46875 3.125 C 4.914062 2.75 5.296875 1.957031 5.609375 0.75 C 5.015625 0.957031 4.507812 1.128906 4.09375 1.265625 C 3.675781 1.398438 3.328125 1.523438 3.046875 1.640625 C 2.773438 1.753906 2.578125 1.863281 2.453125 1.96875 C 2.335938 2.082031 2.28125 2.210938 2.28125 2.359375 C 2.28125 2.640625 2.445312 2.867188 2.78125 3.046875 C 3.125 3.234375 3.445312 3.328125 3.75 3.328125 C 4.050781 3.335938 4.289062 3.269531 4.46875 3.125 Z M 4.46875 3.125 "/></g></g><g style="fill:#00bf63;fill-opacity:1;"><g transform="translate(25.352693, 112.044872)"><path style="stroke:none" d="M 7.359375 -1.4375 C 6.472656 -0.382812 5.40625 0.140625 4.15625 0.140625 C 2.90625 0.140625 1.96875 -0.175781 1.34375 -0.8125 C 0.71875 -1.457031 0.410156 -2.253906 0.421875 -3.203125 C 0.410156 -4.546875 0.832031 -5.703125 1.6875 -6.671875 C 2.550781 -7.648438 3.679688 -8.140625 5.078125 -8.140625 C 5.710938 -8.140625 6.21875 -8.0625 6.59375 -7.90625 C 7.269531 -7.632812 7.609375 -7.378906 7.609375 -7.140625 C 7.609375 -6.960938 7.140625 -6.867188 6.203125 -6.859375 C 5.265625 -6.859375 4.484375 -6.535156 3.859375 -5.890625 C 3.234375 -5.253906 2.921875 -4.453125 2.921875 -3.484375 C 2.921875 -2.972656 3.066406 -2.546875 3.359375 -2.203125 C 3.660156 -1.859375 4.085938 -1.6875 4.640625 -1.6875 C 5.191406 -1.6875 5.644531 -1.796875 6 -2.015625 C 5.195312 -2.554688 4.796875 -3.34375 4.796875 -4.375 C 4.785156 -4.914062 4.976562 -5.410156 5.375 -5.859375 C 5.78125 -6.304688 6.296875 -6.53125 6.921875 -6.53125 C 7.554688 -6.539062 8.007812 -6.367188 8.28125 -6.015625 C 8.550781 -5.671875 8.6875 -5.222656 8.6875 -4.671875 C 8.6875 -4.128906 8.554688 -3.550781 8.296875 -2.9375 L 8.40625 -2.9375 C 8.894531 -2.945312 9.320312 -3.125 9.6875 -3.46875 C 9.820312 -3.601562 9.9375 -3.71875 10.03125 -3.8125 C 10.132812 -3.914062 10.234375 -3.96875 10.328125 -3.96875 C 10.492188 -3.96875 10.578125 -3.78125 10.578125 -3.40625 C 10.578125 -2.71875 10.367188 -2.203125 9.953125 -1.859375 C 9.546875 -1.515625 9.097656 -1.34375 8.609375 -1.34375 C 8.117188 -1.34375 7.703125 -1.375 7.359375 -1.4375 Z M 7.21875 -3.40625 C 7.40625 -3.8125 7.5 -4.207031 7.5 -4.59375 C 7.5 -4.976562 7.375 -5.171875 7.125 -5.171875 C 7.019531 -5.171875 6.929688 -5.097656 6.859375 -4.953125 C 6.796875 -4.804688 6.765625 -4.664062 6.765625 -4.53125 C 6.765625 -4.082031 6.914062 -3.707031 7.21875 -3.40625 Z M 7.21875 -3.40625 "/></g></g><g style="fill:#00bf63;fill-opacity:1;"><g transform="translate(36.261352, 112.044872)"><path style="stroke:none" d="M 5.78125 -7.15625 C 5.78125 -7.914062 6.367188 -8.296875 7.546875 -8.296875 C 7.847656 -8.296875 8.035156 -8.195312 8.109375 -8 C 8.179688 -7.8125 8.21875 -7.519531 8.21875 -7.125 C 8.21875 -6.570312 8.09375 -5.710938 7.84375 -4.546875 C 7.59375 -3.378906 7.472656 -2.59375 7.484375 -2.1875 C 7.484375 -2 7.546875 -1.90625 7.671875 -1.90625 C 7.835938 -1.90625 8.046875 -2.007812 8.296875 -2.21875 C 8.546875 -2.4375 8.796875 -2.671875 9.046875 -2.921875 C 9.296875 -3.179688 9.523438 -3.414062 9.734375 -3.625 C 9.941406 -3.84375 10.085938 -3.953125 10.171875 -3.953125 C 10.328125 -3.953125 10.40625 -3.757812 10.40625 -3.375 C 10.40625 -2.582031 10.015625 -1.820312 9.234375 -1.09375 C 7.921875 -0.320312 7.085938 0.0625 6.734375 0.0625 C 6.703125 0.0625 6.675781 0.0546875 6.65625 0.046875 C 6.21875 0.046875 5.910156 -0.09375 5.734375 -0.375 C 5.566406 -0.65625 5.457031 -1.007812 5.40625 -1.4375 C 5.1875 -1.019531 4.878906 -0.660156 4.484375 -0.359375 C 4.085938 -0.0664062 3.632812 0.078125 3.125 0.078125 C 2.226562 0.078125 1.539062 -0.0859375 1.0625 -0.421875 C 0.582031 -0.765625 0.34375 -1.269531 0.34375 -1.9375 C 0.34375 -2.226562 0.382812 -2.5 0.46875 -2.75 C 0.550781 -3 0.6875 -3.304688 0.875 -3.671875 L 1.375 -7.84375 C 1.726562 -8.113281 2.234375 -8.25 2.890625 -8.25 C 3.410156 -8.25 3.703125 -7.910156 3.765625 -7.234375 C 3.828125 -6.671875 3.800781 -6.171875 3.6875 -5.734375 C 3.582031 -5.304688 3.4375 -4.757812 3.25 -4.09375 C 3.070312 -3.4375 2.984375 -2.851562 2.984375 -2.34375 C 2.984375 -1.9375 3.238281 -1.734375 3.75 -1.734375 C 4.300781 -1.734375 4.78125 -2.21875 5.1875 -3.1875 C 5.507812 -3.9375 5.726562 -4.769531 5.84375 -5.6875 C 5.820312 -5.769531 5.804688 -5.882812 5.796875 -6.03125 C 5.796875 -6.175781 5.789062 -6.316406 5.78125 -6.453125 C 5.78125 -6.585938 5.78125 -6.722656 5.78125 -6.859375 Z M 5.78125 -7.15625 "/></g></g><g style="fill:#00bf63;fill-opacity:1;"><g transform="translate(47.00037, 112.044872)"><path style="stroke:none" d="M 2.984375 -2.84375 L 3.09375 -0.78125 C 3.09375 -0.507812 2.945312 -0.265625 2.65625 -0.046875 C 2.375 0.160156 1.992188 0.265625 1.515625 0.265625 C 1.234375 0.265625 1.035156 0.117188 0.921875 -0.171875 C 0.816406 -0.460938 0.765625 -0.890625 0.765625 -1.453125 C 0.765625 -2.640625 0.820312 -3.570312 0.9375 -4.25 C 1.0625 -4.925781 1.296875 -5.609375 1.640625 -6.296875 C 1.117188 -6.796875 0.859375 -7.222656 0.859375 -7.578125 C 0.859375 -8.335938 1.269531 -8.71875 2.09375 -8.71875 C 2.507812 -8.71875 2.875 -8.5 3.1875 -8.0625 C 3.414062 -7.757812 3.582031 -7.398438 3.6875 -6.984375 C 3.84375 -6.929688 4.039062 -6.90625 4.28125 -6.90625 C 4.601562 -6.90625 4.976562 -7.015625 5.40625 -7.234375 L 5.859375 -7.453125 C 5.992188 -7.515625 6.109375 -7.546875 6.203125 -7.546875 C 6.535156 -7.546875 6.863281 -7.066406 7.1875 -6.109375 C 7.09375 -5.671875 6.984375 -5.242188 6.859375 -4.828125 C 6.742188 -4.421875 6.601562 -3.929688 6.4375 -3.359375 C 6.28125 -2.785156 6.195312 -2.398438 6.1875 -2.203125 C 6.1875 -2.003906 6.25 -1.90625 6.375 -1.90625 C 6.550781 -1.90625 6.757812 -2.007812 7 -2.21875 C 7.25 -2.4375 7.5 -2.671875 7.75 -2.921875 C 8 -3.179688 8.226562 -3.414062 8.4375 -3.625 C 8.644531 -3.84375 8.789062 -3.953125 8.875 -3.953125 C 9.03125 -3.953125 9.109375 -3.757812 9.109375 -3.375 C 9.109375 -2.59375 8.765625 -1.820312 8.078125 -1.0625 C 7.398438 -0.3125 6.617188 0.0546875 5.734375 0.046875 C 5.210938 0.046875 4.820312 -0.160156 4.5625 -0.578125 C 4.300781 -0.992188 4.164062 -1.503906 4.15625 -2.109375 C 4.15625 -3.296875 4.421875 -4.421875 4.953125 -5.484375 C 4.703125 -5.378906 4.421875 -5.328125 4.109375 -5.328125 C 3.796875 -5.328125 3.570312 -5.335938 3.4375 -5.359375 C 3.34375 -4.929688 3.242188 -4.5 3.140625 -4.0625 C 3.035156 -3.625 2.984375 -3.21875 2.984375 -2.84375 Z M 2.984375 -2.84375 "/></g></g><g style="fill:#00bf63;fill-opacity:1;"><g transform="translate(56.450118, 112.044872)"><path style="stroke:none" d=""/></g></g><g style="fill:#00bf63;fill-opacity:1;"><g transform="translate(64.932922, 112.044872)"><path style="stroke:none" d="M 10.921875 -4 C 11.128906 -4 11.234375 -3.738281 11.234375 -3.21875 C 11.234375 -2.9375 11.113281 -2.59375 10.875 -2.1875 C 10.632812 -1.789062 10.328125 -1.425781 9.953125 -1.09375 C 9.578125 -0.757812 9.15625 -0.484375 8.6875 -0.265625 C 8.226562 -0.0546875 7.773438 0.046875 7.328125 0.046875 C 6.703125 0.046875 6.296875 -0.457031 6.109375 -1.46875 C 5.429688 -0.394531 4.425781 0.140625 3.09375 0.140625 C 2.269531 0.140625 1.613281 -0.109375 1.125 -0.609375 C 0.644531 -1.109375 0.410156 -1.710938 0.421875 -2.421875 C 0.421875 -4.347656 1.0625 -5.863281 2.34375 -6.96875 C 3.226562 -7.726562 4.144531 -8.109375 5.09375 -8.109375 C 5.519531 -8.109375 5.859375 -8.078125 6.109375 -8.015625 L 6.5 -7.90625 C 6.957031 -10.09375 7.492188 -11.550781 8.109375 -12.28125 C 8.316406 -12.53125 8.519531 -12.65625 8.71875 -12.65625 C 9.050781 -12.65625 9.359375 -12.429688 9.640625 -11.984375 C 9.890625 -11.609375 10.015625 -11.285156 10.015625 -11.015625 C 10.015625 -10.742188 9.972656 -10.476562 9.890625 -10.21875 C 9.816406 -9.957031 9.71875 -9.710938 9.59375 -9.484375 C 9.476562 -9.265625 9.34375 -9.050781 9.1875 -8.84375 C 9.039062 -8.632812 8.894531 -8.425781 8.75 -8.21875 C 8.425781 -6.988281 8.1875 -5.617188 8.03125 -4.109375 C 7.976562 -3.679688 7.953125 -3.335938 7.953125 -3.078125 C 7.953125 -2.296875 8.082031 -1.90625 8.34375 -1.90625 C 8.644531 -1.90625 9.359375 -2.492188 10.484375 -3.671875 C 10.691406 -3.890625 10.835938 -4 10.921875 -4 Z M 2.921875 -2.984375 C 2.921875 -2.117188 3.242188 -1.6875 3.890625 -1.6875 C 4.273438 -1.6875 4.660156 -1.832031 5.046875 -2.125 C 5.441406 -2.414062 5.742188 -2.90625 5.953125 -3.59375 C 5.972656 -4.613281 6.09375 -5.734375 6.3125 -6.953125 C 5.40625 -6.773438 4.613281 -6.332031 3.9375 -5.625 C 3.257812 -4.925781 2.921875 -4.046875 2.921875 -2.984375 Z M 2.921875 -2.984375 "/></g></g><g style="fill:#00bf63;fill-opacity:1;"><g transform="translate(76.503177, 112.044872)"><path style="stroke:none" d="M 2.546875 0.046875 C 1.410156 0.046875 0.84375 -1.007812 0.84375 -3.125 C 0.84375 -4.28125 0.984375 -5.328125 1.265625 -6.265625 C 1.710938 -7.710938 2.210938 -8.4375 2.765625 -8.4375 C 3.097656 -8.4375 3.359375 -8.210938 3.546875 -7.765625 C 3.703125 -7.429688 3.773438 -7.097656 3.765625 -6.765625 C 3.765625 -6.316406 3.628906 -5.519531 3.359375 -4.375 C 3.097656 -3.382812 2.96875 -2.769531 2.96875 -2.53125 C 2.96875 -2.289062 3.023438 -2.125 3.140625 -2.03125 C 3.265625 -1.945312 3.40625 -1.90625 3.5625 -1.90625 C 3.726562 -1.90625 3.9375 -2.007812 4.1875 -2.21875 C 4.4375 -2.4375 4.6875 -2.671875 4.9375 -2.921875 C 5.1875 -3.179688 5.414062 -3.414062 5.625 -3.625 C 5.832031 -3.84375 5.976562 -3.953125 6.0625 -3.953125 C 6.21875 -3.953125 6.296875 -3.757812 6.296875 -3.375 C 6.296875 -2.582031 5.894531 -1.8125 5.09375 -1.0625 C 4.300781 -0.3125 3.453125 0.0546875 2.546875 0.046875 Z M 3.234375 -9.8125 C 2.929688 -10.257812 2.78125 -10.742188 2.78125 -11.265625 C 2.78125 -11.785156 2.863281 -12.21875 3.03125 -12.5625 C 3.195312 -12.90625 3.351562 -13.160156 3.5 -13.328125 C 3.644531 -13.492188 3.8125 -13.578125 4 -13.578125 C 4.320312 -13.578125 4.613281 -13.34375 4.875 -12.875 C 5.132812 -12.40625 5.265625 -12.007812 5.265625 -11.6875 C 5.265625 -11.101562 5.054688 -10.644531 4.640625 -10.3125 C 4.222656 -9.976562 3.753906 -9.8125 3.234375 -9.8125 Z M 3.234375 -9.8125 "/></g></g><g style="fill:#00bf63;fill-opacity:1;"><g transform="translate(83.136901, 112.044872)"><path style="stroke:none" d="M 7.015625 -7.71875 C 7.171875 -8.21875 7.421875 -8.46875 7.765625 -8.46875 C 8.085938 -8.457031 8.390625 -8.234375 8.671875 -7.796875 C 8.953125 -7.359375 9.09375 -7.019531 9.09375 -6.78125 C 9.070312 -6.320312 8.929688 -5.582031 8.671875 -4.5625 C 8.410156 -3.550781 8.039062 -2.238281 7.5625 -0.625 C 8.3125 -1.207031 9.050781 -1.960938 9.78125 -2.890625 C 10.019531 -3.203125 10.226562 -3.457031 10.40625 -3.65625 C 10.582031 -3.851562 10.726562 -3.953125 10.84375 -3.953125 C 11 -3.953125 11.078125 -3.769531 11.078125 -3.40625 C 11.078125 -2.695312 10.675781 -1.863281 9.875 -0.90625 C 9.082031 0.0390625 8.109375 0.78125 6.953125 1.3125 C 6.816406 1.757812 6.671875 2.1875 6.515625 2.59375 C 6.359375 3 6.15625 3.359375 5.90625 3.671875 C 5.363281 4.328125 4.535156 4.65625 3.421875 4.65625 C 2.679688 4.65625 2.046875 4.4375 1.515625 4 C 0.992188 3.570312 0.734375 3.035156 0.734375 2.390625 C 0.734375 2.035156 0.847656 1.753906 1.078125 1.546875 C 1.304688 1.347656 1.625 1.1875 2.03125 1.0625 C 2.4375 0.9375 2.914062 0.828125 3.46875 0.734375 C 4.019531 0.648438 4.601562 0.539062 5.21875 0.40625 C 5.28125 0.21875 5.332031 0.03125 5.375 -0.15625 C 5.414062 -0.34375 5.457031 -0.535156 5.5 -0.734375 C 4.875 -0.148438 4.109375 0.140625 3.203125 0.140625 C 2.304688 0.140625 1.613281 -0.109375 1.125 -0.609375 C 0.644531 -1.109375 0.410156 -1.710938 0.421875 -2.421875 C 0.421875 -4.347656 1.0625 -5.863281 2.34375 -6.96875 C 3.226562 -7.726562 4.144531 -8.109375 5.09375 -8.109375 C 5.414062 -8.109375 5.765625 -8.066406 6.140625 -7.984375 C 6.523438 -7.910156 6.816406 -7.820312 7.015625 -7.71875 Z M 2.921875 -2.984375 C 2.921875 -2.117188 3.242188 -1.6875 3.890625 -1.6875 C 4.242188 -1.6875 4.609375 -1.820312 4.984375 -2.09375 C 5.359375 -2.363281 5.660156 -2.800781 5.890625 -3.40625 C 6.054688 -4.195312 6.234375 -4.925781 6.421875 -5.59375 C 6.609375 -6.257812 6.734375 -6.722656 6.796875 -6.984375 C 5.847656 -6.859375 4.960938 -6.429688 4.140625 -5.703125 C 3.328125 -4.984375 2.921875 -4.078125 2.921875 -2.984375 Z M 4.703125 1.96875 C 4.296875 2.050781 3.9375 2.113281 3.625 2.15625 C 3.320312 2.195312 3.070312 2.234375 2.875 2.265625 C 2.675781 2.304688 2.53125 2.347656 2.4375 2.390625 C 2.34375 2.429688 2.296875 2.503906 2.296875 2.609375 C 2.296875 2.816406 2.421875 2.992188 2.671875 3.140625 C 2.921875 3.285156 3.171875 3.351562 3.421875 3.34375 C 3.859375 3.34375 4.285156 2.882812 4.703125 1.96875 Z M 4.703125 1.96875 "/></g></g><g style="fill:#00bf63;fill-opacity:1;"><g transform="translate(94.554481, 112.044872)"><path style="stroke:none" d="M 2.546875 0.046875 C 1.410156 0.046875 0.84375 -1.007812 0.84375 -3.125 C 0.84375 -4.28125 0.984375 -5.328125 1.265625 -6.265625 C 1.710938 -7.710938 2.210938 -8.4375 2.765625 -8.4375 C 3.097656 -8.4375 3.359375 -8.210938 3.546875 -7.765625 C 3.703125 -7.429688 3.773438 -7.097656 3.765625 -6.765625 C 3.765625 -6.316406 3.628906 -5.519531 3.359375 -4.375 C 3.097656 -3.382812 2.96875 -2.769531 2.96875 -2.53125 C 2.96875 -2.289062 3.023438 -2.125 3.140625 -2.03125 C 3.265625 -1.945312 3.40625 -1.90625 3.5625 -1.90625 C 3.726562 -1.90625 3.9375 -2.007812 4.1875 -2.21875 C 4.4375 -2.4375 4.6875 -2.671875 4.9375 -2.921875 C 5.1875 -3.179688 5.414062 -3.414062 5.625 -3.625 C 5.832031 -3.84375 5.976562 -3.953125 6.0625 -3.953125 C 6.21875 -3.953125 6.296875 -3.757812 6.296875 -3.375 C 6.296875 -2.582031 5.894531 -1.8125 5.09375 -1.0625 C 4.300781 -0.3125 3.453125 0.0546875 2.546875 0.046875 Z M 3.234375 -9.8125 C 2.929688 -10.257812 2.78125 -10.742188 2.78125 -11.265625 C 2.78125 -11.785156 2.863281 -12.21875 3.03125 -12.5625 C 3.195312 -12.90625 3.351562 -13.160156 3.5 -13.328125 C 3.644531 -13.492188 3.8125 -13.578125 4 -13.578125 C 4.320312 -13.578125 4.613281 -13.34375 4.875 -12.875 C 5.132812 -12.40625 5.265625 -12.007812 5.265625 -11.6875 C 5.265625 -11.101562 5.054688 -10.644531 4.640625 -10.3125 C 4.222656 -9.976562 3.753906 -9.8125 3.234375 -9.8125 Z M 3.234375 -9.8125 "/></g></g><g style="fill:#00bf63;fill-opacity:1;"><g transform="translate(101.188205, 112.044872)"><path style="stroke:none" d="M 1.25 -0.921875 C 1.125 -1.222656 1.035156 -1.570312 0.984375 -1.96875 C 0.929688 -2.375 0.90625 -2.9375 0.90625 -3.65625 C 0.90625 -4.382812 1.039062 -5.363281 1.3125 -6.59375 L 0.546875 -6.59375 C 0.410156 -6.59375 0.34375 -6.648438 0.34375 -6.765625 C 0.34375 -7.035156 0.363281 -7.257812 0.40625 -7.4375 C 0.457031 -7.613281 0.582031 -7.816406 0.78125 -8.046875 L 1.1875 -8.046875 C 1.34375 -8.046875 1.515625 -8.050781 1.703125 -8.0625 C 2.242188 -9.800781 2.796875 -10.671875 3.359375 -10.671875 C 3.804688 -10.660156 4.125 -10.375 4.3125 -9.8125 C 4.351562 -9.65625 4.40625 -9.484375 4.46875 -9.296875 L 3.765625 -8.078125 C 4.554688 -8.054688 5.054688 -8.046875 5.265625 -8.046875 C 5.472656 -8.046875 5.585938 -8.023438 5.609375 -7.984375 C 5.628906 -7.941406 5.640625 -7.882812 5.640625 -7.8125 C 5.640625 -7.601562 5.585938 -7.34375 5.484375 -7.03125 C 5.390625 -6.726562 5.28125 -6.582031 5.15625 -6.59375 L 3.46875 -6.6875 C 3.226562 -5.300781 3.109375 -4.15625 3.109375 -3.25 C 3.109375 -2.351562 3.238281 -1.90625 3.5 -1.90625 C 3.707031 -1.90625 4.09375 -2.082031 4.65625 -2.4375 C 5.226562 -2.789062 5.640625 -3.128906 5.890625 -3.453125 C 6.140625 -3.785156 6.34375 -3.953125 6.5 -3.953125 C 6.65625 -3.953125 6.734375 -3.757812 6.734375 -3.375 C 6.734375 -2.988281 6.597656 -2.59375 6.328125 -2.1875 C 6.054688 -1.789062 5.710938 -1.425781 5.296875 -1.09375 C 4.890625 -0.757812 4.429688 -0.484375 3.921875 -0.265625 C 3.421875 -0.0546875 2.984375 0.046875 2.609375 0.046875 C 2.234375 0.046875 1.945312 -0.0351562 1.75 -0.203125 C 1.550781 -0.378906 1.382812 -0.617188 1.25 -0.921875 Z M 1.25 -0.921875 "/></g></g><g style="fill:#00bf63;fill-opacity:1;"><g transform="translate(108.262997, 112.044872)"><path style="stroke:none" d="M 10.921875 -4 C 11.128906 -4 11.234375 -3.738281 11.234375 -3.21875 C 11.234375 -2.9375 11.113281 -2.59375 10.875 -2.1875 C 10.632812 -1.789062 10.328125 -1.425781 9.953125 -1.09375 C 9.578125 -0.757812 9.15625 -0.484375 8.6875 -0.265625 C 8.226562 -0.0546875 7.773438 0.046875 7.328125 0.046875 C 6.734375 0.046875 6.332031 -0.476562 6.125 -1.53125 C 5.832031 -1.039062 5.445312 -0.640625 4.96875 -0.328125 C 4.5 -0.015625 3.863281 0.140625 3.0625 0.140625 C 2.257812 0.140625 1.613281 -0.109375 1.125 -0.609375 C 0.644531 -1.109375 0.410156 -1.710938 0.421875 -2.421875 C 0.421875 -4.347656 1.0625 -5.863281 2.34375 -6.96875 C 2.882812 -7.4375 3.390625 -7.742188 3.859375 -7.890625 C 4.328125 -8.035156 4.820312 -8.109375 5.34375 -8.109375 C 5.863281 -8.109375 6.289062 -8.019531 6.625 -7.84375 C 6.78125 -8.164062 6.957031 -8.328125 7.15625 -8.328125 C 7.550781 -8.328125 7.925781 -8.15625 8.28125 -7.8125 C 8.644531 -7.46875 8.828125 -7.144531 8.828125 -6.84375 C 8.671875 -6.46875 8.4375 -6.019531 8.125 -5.5 C 8.039062 -4.976562 8 -4.25 8 -3.3125 C 8 -2.375 8.113281 -1.90625 8.34375 -1.90625 C 8.644531 -1.90625 9.359375 -2.492188 10.484375 -3.671875 C 10.691406 -3.890625 10.835938 -4 10.921875 -4 Z M 2.921875 -2.984375 C 2.921875 -2.117188 3.242188 -1.6875 3.890625 -1.6875 C 4.578125 -1.695312 5.144531 -2.0625 5.59375 -2.78125 C 5.757812 -3.03125 5.890625 -3.335938 5.984375 -3.703125 C 5.984375 -4.960938 6.097656 -6.046875 6.328125 -6.953125 C 5.410156 -6.773438 4.613281 -6.332031 3.9375 -5.625 C 3.257812 -4.925781 2.921875 -4.046875 2.921875 -2.984375 Z M 2.921875 -2.984375 "/></g></g><g style="fill:#00bf63;fill-opacity:1;"><g transform="translate(119.833252, 112.044872)"><path style="stroke:none" d="M 4.296875 0.046875 C 2.671875 0.0546875 1.566406 -0.546875 0.984375 -1.765625 C 0.773438 -2.191406 0.671875 -2.726562 0.671875 -3.375 C 0.671875 -4.03125 0.726562 -4.726562 0.84375 -5.46875 C 1.070312 -6.9375 1.507812 -8.289062 2.15625 -9.53125 C 2.476562 -10.164062 2.847656 -10.710938 3.265625 -11.171875 C 4.148438 -12.160156 5.144531 -12.648438 6.25 -12.640625 C 6.726562 -12.640625 7.109375 -12.503906 7.390625 -12.234375 C 7.671875 -11.972656 7.8125 -11.59375 7.8125 -11.09375 C 7.8125 -10.59375 7.660156 -10.09375 7.359375 -9.59375 C 7.066406 -9.09375 6.691406 -8.570312 6.234375 -8.03125 C 5.773438 -7.5 5.269531 -6.9375 4.71875 -6.34375 C 4.164062 -5.757812 3.625 -5.117188 3.09375 -4.421875 L 3.09375 -3.75 C 3.09375 -3.113281 3.226562 -2.648438 3.5 -2.359375 C 3.769531 -2.066406 4.085938 -1.921875 4.453125 -1.921875 C 5.421875 -1.921875 6.28125 -2.398438 7.03125 -3.359375 C 7.332031 -3.753906 7.5625 -3.953125 7.71875 -3.953125 C 7.875 -3.953125 7.953125 -3.757812 7.953125 -3.375 C 7.953125 -2.988281 7.847656 -2.59375 7.640625 -2.1875 C 7.429688 -1.789062 7.15625 -1.425781 6.8125 -1.09375 C 6.476562 -0.757812 6.085938 -0.484375 5.640625 -0.265625 C 5.203125 -0.0546875 4.753906 0.046875 4.296875 0.046875 Z M 5.203125 -9.0625 C 5.441406 -9.351562 5.628906 -9.617188 5.765625 -9.859375 C 5.898438 -10.097656 5.96875 -10.34375 5.96875 -10.59375 C 5.96875 -10.851562 5.878906 -10.984375 5.703125 -10.984375 C 5.304688 -10.984375 4.867188 -10.570312 4.390625 -9.75 C 3.910156 -8.9375 3.550781 -7.867188 3.3125 -6.546875 C 3.695312 -7.140625 4.050781 -7.632812 4.375 -8.03125 C 4.695312 -8.425781 4.972656 -8.769531 5.203125 -9.0625 Z M 5.203125 -9.0625 "/></g></g><g style="fill:#00bf63;fill-opacity:1;"><g transform="translate(127.976775, 112.044872)"><path style="stroke:none" d=""/></g></g><g style="fill:#00bf63;fill-opacity:1;"><g transform="translate(136.459579, 112.044872)"><path style="stroke:none" d="M 3.71875 -7.109375 C 4.300781 -7.773438 5.050781 -8.109375 5.96875 -8.109375 C 7.28125 -8.109375 8.113281 -7.578125 8.46875 -6.515625 C 8.570312 -6.203125 8.625 -5.851562 8.625 -5.46875 C 8.625 -4.601562 8.34375 -3.75 7.78125 -2.90625 C 7.21875 -2.070312 6.539062 -1.507812 5.75 -1.21875 L 5.953125 -1.21875 C 6.773438 -1.21875 7.613281 -1.523438 8.46875 -2.140625 C 9.007812 -2.523438 9.4375 -2.921875 9.75 -3.328125 C 10.0625 -3.742188 10.296875 -3.953125 10.453125 -3.953125 C 10.609375 -3.953125 10.6875 -3.769531 10.6875 -3.40625 C 10.6875 -2.769531 10.414062 -2.132812 9.875 -1.5 C 9.0625 -0.570312 8.019531 -0.0234375 6.75 0.140625 C 5.832031 0.234375 5.179688 0.242188 4.796875 0.171875 C 4.410156 0.109375 4.117188 0.03125 3.921875 -0.0625 C 3.484375 -0.289062 3.265625 -0.632812 3.265625 -1.09375 C 3.265625 -1.332031 3.3125 -1.554688 3.40625 -1.765625 C 4.300781 -1.765625 4.976562 -2.101562 5.4375 -2.78125 C 5.90625 -3.457031 6.140625 -4.304688 6.140625 -5.328125 C 6.140625 -5.578125 6.046875 -5.800781 5.859375 -6 C 5.679688 -6.195312 5.441406 -6.296875 5.140625 -6.296875 C 4.847656 -6.296875 4.523438 -6.164062 4.171875 -5.90625 C 3.816406 -5.644531 3.535156 -5.316406 3.328125 -4.921875 C 3.117188 -4.535156 2.929688 -4.148438 2.765625 -3.765625 C 2.597656 -3.390625 2.460938 -2.914062 2.359375 -2.34375 C 2.179688 -1.300781 1.972656 0.0078125 1.734375 1.59375 C 1.503906 3.1875 1.359375 4.039062 1.296875 4.15625 C 1.242188 4.28125 1.160156 4.394531 1.046875 4.5 C 0.929688 4.601562 0.816406 4.65625 0.703125 4.65625 C 0.472656 4.65625 0.285156 4.585938 0.140625 4.453125 C -0.265625 4.097656 -0.5 3.828125 -0.5625 3.640625 C -0.632812 3.453125 -0.671875 3.210938 -0.671875 2.921875 C -0.671875 1.804688 -0.484375 0.25 -0.109375 -1.75 C 0.253906 -3.75 0.894531 -5.832031 1.8125 -8 C 1.945312 -8.3125 2.1875 -8.46875 2.53125 -8.46875 C 2.875 -8.46875 3.207031 -8.160156 3.53125 -7.546875 C 3.625 -7.390625 3.6875 -7.242188 3.71875 -7.109375 Z M 3.71875 -7.109375 "/></g></g><g style="fill:#00bf63;fill-opacity:1;"><g transform="translate(147.486979, 112.044872)"><path style="stroke:none" d="M 10.921875 -4 C 11.128906 -4 11.234375 -3.738281 11.234375 -3.21875 C 11.234375 -2.9375 11.113281 -2.59375 10.875 -2.1875 C 10.632812 -1.789062 10.328125 -1.425781 9.953125 -1.09375 C 9.578125 -0.757812 9.15625 -0.484375 8.6875 -0.265625 C 8.226562 -0.0546875 7.773438 0.046875 7.328125 0.046875 C 6.734375 0.046875 6.332031 -0.476562 6.125 -1.53125 C 5.832031 -1.039062 5.445312 -0.640625 4.96875 -0.328125 C 4.5 -0.015625 3.863281 0.140625 3.0625 0.140625 C 2.257812 0.140625 1.613281 -0.109375 1.125 -0.609375 C 0.644531 -1.109375 0.410156 -1.710938 0.421875 -2.421875 C 0.421875 -4.347656 1.0625 -5.863281 2.34375 -6.96875 C 2.882812 -7.4375 3.390625 -7.742188 3.859375 -7.890625 C 4.328125 -8.035156 4.820312 -8.109375 5.34375 -8.109375 C 5.863281 -8.109375 6.289062 -8.019531 6.625 -7.84375 C 6.78125 -8.164062 6.957031 -8.328125 7.15625 -8.328125 C 7.550781 -8.328125 7.925781 -8.15625 8.28125 -7.8125 C 8.644531 -7.46875 8.828125 -7.144531 8.828125 -6.84375 C 8.671875 -6.46875 8.4375 -6.019531 8.125 -5.5 C 8.039062 -4.976562 8 -4.25 8 -3.3125 C 8 -2.375 8.113281 -1.90625 8.34375 -1.90625 C 8.644531 -1.90625 9.359375 -2.492188 10.484375 -3.671875 C 10.691406 -3.890625 10.835938 -4 10.921875 -4 Z M 2.921875 -2.984375 C 2.921875 -2.117188 3.242188 -1.6875 3.890625 -1.6875 C 4.578125 -1.695312 5.144531 -2.0625 5.59375 -2.78125 C 5.757812 -3.03125 5.890625 -3.335938 5.984375 -3.703125 C 5.984375 -4.960938 6.097656 -6.046875 6.328125 -6.953125 C 5.410156 -6.773438 4.613281 -6.332031 3.9375 -5.625 C 3.257812 -4.925781 2.921875 -4.046875 2.921875 -2.984375 Z M 2.921875 -2.984375 "/></g></g><g style="fill:#00bf63;fill-opacity:1;"><g transform="translate(159.057234, 112.044872)"><path style="stroke:none" d="M 2.984375 -2.84375 L 3.09375 -0.78125 C 3.09375 -0.507812 2.945312 -0.265625 2.65625 -0.046875 C 2.375 0.160156 1.992188 0.265625 1.515625 0.265625 C 1.234375 0.265625 1.035156 0.117188 0.921875 -0.171875 C 0.816406 -0.460938 0.765625 -0.890625 0.765625 -1.453125 C 0.765625 -2.640625 0.820312 -3.570312 0.9375 -4.25 C 1.0625 -4.925781 1.296875 -5.609375 1.640625 -6.296875 C 1.117188 -6.796875 0.859375 -7.222656 0.859375 -7.578125 C 0.859375 -8.335938 1.269531 -8.71875 2.09375 -8.71875 C 2.507812 -8.71875 2.875 -8.5 3.1875 -8.0625 C 3.414062 -7.757812 3.582031 -7.398438 3.6875 -6.984375 C 3.84375 -6.929688 4.039062 -6.90625 4.28125 -6.90625 C 4.601562 -6.90625 4.976562 -7.015625 5.40625 -7.234375 L 5.859375 -7.453125 C 5.992188 -7.515625 6.109375 -7.546875 6.203125 -7.546875 C 6.535156 -7.546875 6.863281 -7.066406 7.1875 -6.109375 C 7.09375 -5.671875 6.984375 -5.242188 6.859375 -4.828125 C 6.742188 -4.421875 6.601562 -3.929688 6.4375 -3.359375 C 6.28125 -2.785156 6.195312 -2.398438 6.1875 -2.203125 C 6.1875 -2.003906 6.25 -1.90625 6.375 -1.90625 C 6.550781 -1.90625 6.757812 -2.007812 7 -2.21875 C 7.25 -2.4375 7.5 -2.671875 7.75 -2.921875 C 8 -3.179688 8.226562 -3.414062 8.4375 -3.625 C 8.644531 -3.84375 8.789062 -3.953125 8.875 -3.953125 C 9.03125 -3.953125 9.109375 -3.757812 9.109375 -3.375 C 9.109375 -2.59375 8.765625 -1.820312 8.078125 -1.0625 C 7.398438 -0.3125 6.617188 0.0546875 5.734375 0.046875 C 5.210938 0.046875 4.820312 -0.160156 4.5625 -0.578125 C 4.300781 -0.992188 4.164062 -1.503906 4.15625 -2.109375 C 4.15625 -3.296875 4.421875 -4.421875 4.953125 -5.484375 C 4.703125 -5.378906 4.421875 -5.328125 4.109375 -5.328125 C 3.796875 -5.328125 3.570312 -5.335938 3.4375 -5.359375 C 3.34375 -4.929688 3.242188 -4.5 3.140625 -4.0625 C 3.035156 -3.625 2.984375 -3.21875 2.984375 -2.84375 Z M 2.984375 -2.84375 "/></g></g><g style="fill:#00bf63;fill-opacity:1;"><g transform="translate(168.506982, 112.044872)"><path style="stroke:none" d="M 1.25 -0.921875 C 1.125 -1.222656 1.035156 -1.570312 0.984375 -1.96875 C 0.929688 -2.375 0.90625 -2.9375 0.90625 -3.65625 C 0.90625 -4.382812 1.039062 -5.363281 1.3125 -6.59375 L 0.546875 -6.59375 C 0.410156 -6.59375 0.34375 -6.648438 0.34375 -6.765625 C 0.34375 -7.035156 0.363281 -7.257812 0.40625 -7.4375 C 0.457031 -7.613281 0.582031 -7.816406 0.78125 -8.046875 L 1.1875 -8.046875 C 1.34375 -8.046875 1.515625 -8.050781 1.703125 -8.0625 C 2.242188 -9.800781 2.796875 -10.671875 3.359375 -10.671875 C 3.804688 -10.660156 4.125 -10.375 4.3125 -9.8125 C 4.351562 -9.65625 4.40625 -9.484375 4.46875 -9.296875 L 3.765625 -8.078125 C 4.554688 -8.054688 5.054688 -8.046875 5.265625 -8.046875 C 5.472656 -8.046875 5.585938 -8.023438 5.609375 -7.984375 C 5.628906 -7.941406 5.640625 -7.882812 5.640625 -7.8125 C 5.640625 -7.601562 5.585938 -7.34375 5.484375 -7.03125 C 5.390625 -6.726562 5.28125 -6.582031 5.15625 -6.59375 L 3.46875 -6.6875 C 3.226562 -5.300781 3.109375 -4.15625 3.109375 -3.25 C 3.109375 -2.351562 3.238281 -1.90625 3.5 -1.90625 C 3.707031 -1.90625 4.09375 -2.082031 4.65625 -2.4375 C 5.226562 -2.789062 5.640625 -3.128906 5.890625 -3.453125 C 6.140625 -3.785156 6.34375 -3.953125 6.5 -3.953125 C 6.65625 -3.953125 6.734375 -3.757812 6.734375 -3.375 C 6.734375 -2.988281 6.597656 -2.59375 6.328125 -2.1875 C 6.054688 -1.789062 5.710938 -1.425781 5.296875 -1.09375 C 4.890625 -0.757812 4.429688 -0.484375 3.921875 -0.265625 C 3.421875 -0.0546875 2.984375 0.046875 2.609375 0.046875 C 2.234375 0.046875 1.945312 -0.0351562 1.75 -0.203125 C 1.550781 -0.378906 1.382812 -0.617188 1.25 -0.921875 Z M 1.25 -0.921875 "/></g></g><g style="fill:#00bf63;fill-opacity:1;"><g transform="translate(175.581774, 112.044872)"><path style="stroke:none" d="M 2.765625 -8.46875 C 3.171875 -8.46875 3.554688 -8.078125 3.921875 -7.296875 C 4.453125 -7.847656 5.109375 -8.125 5.890625 -8.125 C 6.679688 -8.125 7.273438 -7.953125 7.671875 -7.609375 C 8.066406 -7.265625 8.265625 -6.773438 8.265625 -6.140625 C 8.265625 -5.515625 8.179688 -4.878906 8.015625 -4.234375 C 7.847656 -3.597656 7.726562 -3.140625 7.65625 -2.859375 C 7.582031 -2.578125 7.546875 -2.347656 7.546875 -2.171875 C 7.546875 -1.992188 7.609375 -1.90625 7.734375 -1.90625 C 7.910156 -1.90625 8.117188 -2.007812 8.359375 -2.21875 C 8.609375 -2.4375 8.859375 -2.671875 9.109375 -2.921875 C 9.359375 -3.179688 9.585938 -3.414062 9.796875 -3.625 C 10.003906 -3.84375 10.148438 -3.953125 10.234375 -3.953125 C 10.390625 -3.953125 10.46875 -3.757812 10.46875 -3.375 C 10.46875 -2.582031 10.078125 -1.820312 9.296875 -1.09375 C 7.984375 -0.320312 7.144531 0.0625 6.78125 0.0625 C 6.75 0.0625 6.726562 0.0546875 6.71875 0.046875 C 5.8125 0.046875 5.359375 -0.675781 5.359375 -2.125 C 5.359375 -2.738281 5.414062 -3.304688 5.53125 -3.828125 C 5.65625 -4.347656 5.742188 -4.726562 5.796875 -4.96875 C 5.859375 -5.207031 5.890625 -5.453125 5.890625 -5.703125 C 5.890625 -6.109375 5.65625 -6.3125 5.1875 -6.3125 C 4.71875 -6.3125 4.269531 -5.960938 3.84375 -5.265625 C 3.414062 -4.566406 3.128906 -3.847656 2.984375 -3.109375 L 2.984375 -2.984375 C 2.984375 -2.597656 3.039062 -2.203125 3.15625 -1.796875 C 3.28125 -1.390625 3.34375 -1.109375 3.34375 -0.953125 C 3.34375 -0.566406 2.863281 -0.1875 1.90625 0.1875 C 1.757812 0.238281 1.628906 0.265625 1.515625 0.265625 C 1.234375 0.265625 1.035156 0.117188 0.921875 -0.171875 C 0.816406 -0.460938 0.765625 -0.921875 0.765625 -1.546875 C 0.765625 -3.148438 0.828125 -4.304688 0.953125 -5.015625 C 1.117188 -6.085938 1.503906 -7.082031 2.109375 -8 C 2.304688 -8.3125 2.523438 -8.46875 2.765625 -8.46875 Z M 2.765625 -8.46875 "/></g></g><g style="fill:#00bf63;fill-opacity:1;"><g transform="translate(186.388646, 112.044872)"><path style="stroke:none" d="M 4.46875 -1.84375 C 5.34375 -1.84375 6.195312 -2.195312 7.03125 -2.90625 C 7.332031 -3.164062 7.578125 -3.40625 7.765625 -3.625 C 7.960938 -3.84375 8.113281 -3.953125 8.21875 -3.953125 C 8.375 -3.953125 8.453125 -3.789062 8.453125 -3.46875 C 8.453125 -3.15625 8.363281 -2.800781 8.1875 -2.40625 C 8.019531 -2.019531 7.738281 -1.640625 7.34375 -1.265625 C 6.375 -0.347656 5.039062 0.109375 3.34375 0.109375 C 2 0.109375 1.082031 -0.378906 0.59375 -1.359375 C 0.425781 -1.691406 0.34375 -2.175781 0.34375 -2.8125 C 0.34375 -3.445312 0.46875 -4.101562 0.71875 -4.78125 C 0.96875 -5.46875 1.296875 -6.0625 1.703125 -6.5625 C 2.117188 -7.0625 2.597656 -7.445312 3.140625 -7.71875 C 3.679688 -8 4.257812 -8.140625 4.875 -8.140625 C 5.488281 -8.140625 5.960938 -7.988281 6.296875 -7.6875 C 6.628906 -7.382812 6.796875 -6.988281 6.796875 -6.5 C 6.796875 -6.007812 6.675781 -5.609375 6.4375 -5.296875 C 6.195312 -4.992188 5.882812 -4.734375 5.5 -4.515625 C 5.113281 -4.304688 4.6875 -4.117188 4.21875 -3.953125 C 3.75 -3.796875 3.285156 -3.613281 2.828125 -3.40625 L 2.828125 -2.984375 C 2.835938 -2.578125 3.003906 -2.285156 3.328125 -2.109375 C 3.660156 -1.941406 4.039062 -1.851562 4.46875 -1.84375 Z M 4.171875 -6.640625 C 3.585938 -6.640625 3.179688 -5.953125 2.953125 -4.578125 C 3.191406 -4.734375 3.414062 -4.875 3.625 -5 C 3.832031 -5.125 4.015625 -5.242188 4.171875 -5.359375 C 4.515625 -5.609375 4.691406 -5.890625 4.703125 -6.203125 C 4.703125 -6.492188 4.523438 -6.640625 4.171875 -6.640625 Z M 4.171875 -6.640625 "/></g></g><g style="fill:#00bf63;fill-opacity:1;"><g transform="translate(195.176798, 112.044872)"><path style="stroke:none" d="M 2.984375 -2.84375 L 3.09375 -0.78125 C 3.09375 -0.507812 2.945312 -0.265625 2.65625 -0.046875 C 2.375 0.160156 1.992188 0.265625 1.515625 0.265625 C 1.234375 0.265625 1.035156 0.117188 0.921875 -0.171875 C 0.816406 -0.460938 0.765625 -0.890625 0.765625 -1.453125 C 0.765625 -2.640625 0.820312 -3.570312 0.9375 -4.25 C 1.0625 -4.925781 1.296875 -5.609375 1.640625 -6.296875 C 1.117188 -6.796875 0.859375 -7.222656 0.859375 -7.578125 C 0.859375 -8.335938 1.269531 -8.71875 2.09375 -8.71875 C 2.507812 -8.71875 2.875 -8.5 3.1875 -8.0625 C 3.414062 -7.757812 3.582031 -7.398438 3.6875 -6.984375 C 3.84375 -6.929688 4.039062 -6.90625 4.28125 -6.90625 C 4.601562 -6.90625 4.976562 -7.015625 5.40625 -7.234375 L 5.859375 -7.453125 C 5.992188 -7.515625 6.109375 -7.546875 6.203125 -7.546875 C 6.535156 -7.546875 6.863281 -7.066406 7.1875 -6.109375 C 7.09375 -5.671875 6.984375 -5.242188 6.859375 -4.828125 C 6.742188 -4.421875 6.601562 -3.929688 6.4375 -3.359375 C 6.28125 -2.785156 6.195312 -2.398438 6.1875 -2.203125 C 6.1875 -2.003906 6.25 -1.90625 6.375 -1.90625 C 6.550781 -1.90625 6.757812 -2.007812 7 -2.21875 C 7.25 -2.4375 7.5 -2.671875 7.75 -2.921875 C 8 -3.179688 8.226562 -3.414062 8.4375 -3.625 C 8.644531 -3.84375 8.789062 -3.953125 8.875 -3.953125 C 9.03125 -3.953125 9.109375 -3.757812 9.109375 -3.375 C 9.109375 -2.59375 8.765625 -1.820312 8.078125 -1.0625 C 7.398438 -0.3125 6.617188 0.0546875 5.734375 0.046875 C 5.210938 0.046875 4.820312 -0.160156 4.5625 -0.578125 C 4.300781 -0.992188 4.164062 -1.503906 4.15625 -2.109375 C 4.15625 -3.296875 4.421875 -4.421875 4.953125 -5.484375 C 4.703125 -5.378906 4.421875 -5.328125 4.109375 -5.328125 C 3.796875 -5.328125 3.570312 -5.335938 3.4375 -5.359375 C 3.34375 -4.929688 3.242188 -4.5 3.140625 -4.0625 C 3.035156 -3.625 2.984375 -3.21875 2.984375 -2.84375 Z M 2.984375 -2.84375 "/></g></g></g></svg>