<svg xmlns="http://www.w3.org/2000/svg" xmlns:xlink="http://www.w3.org/1999/xlink" width="500" zoomAndPan="magnify" viewBox="0 0 375 374.999991" height="500" preserveAspectRatio="xMidYMid meet" version="1.2"><defs><clipPath id="e6d49f235d"><path d="M 219.355469 144.191406 L 224.5 144.191406 L 224.5 206.023438 L 219.355469 206.023438 Z M 219.355469 144.191406 "/></clipPath></defs><g id="caaf4662bf"><g style="fill:#e11d48;fill-opacity:1;"><g transform="translate(7.629729, 243.89158)"><path style="stroke:none" d="M 94.640625 -163.4375 C 110.492188 -163.4375 124.175781 -162.625 135.6875 -161 C 147.195312 -159.382812 156.019531 -157.722656 162.15625 -156.015625 C 168.289062 -154.304688 171.359375 -153.453125 171.359375 -153.453125 L 171.359375 -109.46875 C 171.359375 -109.46875 170.59375 -110.617188 169.0625 -112.921875 C 167.53125 -115.222656 164.460938 -117.863281 159.859375 -120.84375 C 155.253906 -123.832031 148.429688 -126.347656 139.390625 -128.390625 C 132.910156 -129.753906 125.535156 -130.945312 117.265625 -131.96875 C 108.992188 -133 100.085938 -133.515625 90.546875 -133.515625 C 76.734375 -133.515625 67.140625 -132.316406 61.765625 -129.921875 C 56.390625 -127.535156 53.703125 -123.445312 53.703125 -117.65625 C 53.703125 -112.875 55.492188 -109.460938 59.078125 -107.421875 C 62.660156 -105.378906 67.351562 -103.757812 73.15625 -102.5625 L 127.890625 -93.859375 C 145.109375 -91.304688 157.59375 -86.273438 165.34375 -78.765625 C 173.101562 -71.265625 176.984375 -60.867188 176.984375 -47.578125 C 176.984375 -37.171875 174.507812 -28.257812 169.5625 -20.84375 C 164.625 -13.425781 156.441406 -7.710938 145.015625 -3.703125 C 133.597656 0.296875 118.253906 2.296875 98.984375 2.296875 C 80.222656 2.296875 64.40625 1.445312 51.53125 -0.25 C 38.65625 -1.957031 28.976562 -3.660156 22.5 -5.359375 C 16.019531 -7.066406 12.78125 -7.921875 12.78125 -7.921875 L 13.046875 -51.15625 C 13.046875 -51.15625 14.066406 -49.957031 16.109375 -47.5625 C 18.160156 -45.175781 21.695312 -42.492188 26.71875 -39.515625 C 31.75 -36.535156 38.703125 -34.101562 47.578125 -32.21875 C 54.222656 -31.03125 61.9375 -29.96875 70.71875 -29.03125 C 79.5 -28.09375 89.347656 -27.625 100.265625 -27.625 C 113.046875 -27.625 122.289062 -29.203125 128 -32.359375 C 133.71875 -35.515625 136.578125 -40.332031 136.578125 -46.8125 C 136.578125 -51.40625 135.039062 -54.9375 131.96875 -57.40625 C 128.90625 -59.882812 123.960938 -61.804688 117.140625 -63.171875 L 61.640625 -71.875 C 45.097656 -74.257812 32.816406 -79.070312 24.796875 -86.3125 C 16.785156 -93.5625 12.78125 -103.921875 12.78125 -117.390625 C 12.78125 -127.960938 15.46875 -136.613281 20.84375 -143.34375 C 26.21875 -150.082031 34.914062 -155.113281 46.9375 -158.4375 C 58.957031 -161.769531 74.859375 -163.4375 94.640625 -163.4375 Z M 94.640625 -163.4375 "/></g></g><g clip-rule="nonzero" clip-path="url(#e6d49f235d)"><path style=" stroke:none;fill-rule:nonzero;fill:#ffffff;fill-opacity:1;" d="M 219.355469 144.191406 L 224.5 144.191406 L 224.5 206.019531 L 219.355469 206.019531 Z M 219.355469 144.191406 "/></g><g style="fill:#000000;fill-opacity:1;"><g transform="translate(88.853188, 289.44379)"><path style="stroke:none" d="M 10.53125 0.34375 C 8.882812 0.34375 7.414062 0.140625 6.125 -0.265625 C 4.84375 -0.671875 3.773438 -1.203125 2.921875 -1.859375 C 2.066406 -2.523438 1.410156 -3.253906 0.953125 -4.046875 L 3.546875 -7.203125 L 3.953125 -7.203125 C 4.671875 -6.140625 5.578125 -5.289062 6.671875 -4.65625 C 7.773438 -4.03125 9.0625 -3.71875 10.53125 -3.71875 C 11.789062 -3.71875 12.738281 -3.984375 13.375 -4.515625 C 14.019531 -5.046875 14.34375 -5.78125 14.34375 -6.71875 C 14.34375 -7.28125 14.238281 -7.75 14.03125 -8.125 C 13.820312 -8.507812 13.476562 -8.835938 13 -9.109375 C 12.53125 -9.378906 11.890625 -9.609375 11.078125 -9.796875 L 8.015625 -10.5 C 5.878906 -10.988281 4.285156 -11.796875 3.234375 -12.921875 C 2.191406 -14.054688 1.671875 -15.53125 1.671875 -17.34375 C 1.671875 -18.6875 2.003906 -19.867188 2.671875 -20.890625 C 3.347656 -21.910156 4.328125 -22.703125 5.609375 -23.265625 C 6.898438 -23.828125 8.4375 -24.109375 10.21875 -24.109375 C 12.050781 -24.109375 13.617188 -23.863281 14.921875 -23.375 C 16.234375 -22.894531 17.335938 -22.160156 18.234375 -21.171875 L 15.921875 -17.984375 L 15.515625 -17.984375 C 14.835938 -18.679688 14.066406 -19.207031 13.203125 -19.5625 C 12.335938 -19.914062 11.34375 -20.09375 10.21875 -20.09375 C 8.9375 -20.09375 7.957031 -19.863281 7.28125 -19.40625 C 6.613281 -18.957031 6.28125 -18.332031 6.28125 -17.53125 C 6.28125 -16.78125 6.515625 -16.179688 6.984375 -15.734375 C 7.453125 -15.296875 8.269531 -14.953125 9.4375 -14.703125 L 12.546875 -14.046875 C 14.859375 -13.554688 16.535156 -12.726562 17.578125 -11.5625 C 18.617188 -10.394531 19.140625 -8.875 19.140625 -7 C 19.140625 -5.519531 18.816406 -4.226562 18.171875 -3.125 C 17.535156 -2.03125 16.570312 -1.175781 15.28125 -0.5625 C 13.988281 0.0390625 12.40625 0.34375 10.53125 0.34375 Z M 10.53125 0.34375 "/></g></g><g style="fill:#000000;fill-opacity:1;"><g transform="translate(109.263953, 289.44379)"><path style="stroke:none" d="M 18.4375 -14.828125 L 18.4375 -23.765625 L 23.125 -23.765625 L 23.125 0 L 18.4375 0 L 18.4375 -10.828125 L 7.78125 -10.828125 L 7.78125 0 L 3.09375 0 L 3.09375 -23.765625 L 7.78125 -23.765625 L 7.78125 -14.828125 Z M 18.4375 -14.828125 "/></g></g><g style="fill:#000000;fill-opacity:1;"><g transform="translate(135.476186, 289.44379)"><path style="stroke:none" d="M 3.09375 0 L 3.09375 -23.765625 L 12.625 -23.765625 C 15.09375 -23.765625 16.953125 -23.195312 18.203125 -22.0625 C 19.453125 -20.9375 20.078125 -19.375 20.078125 -17.375 C 20.078125 -15.9375 19.710938 -14.753906 18.984375 -13.828125 C 18.253906 -12.910156 17.160156 -12.207031 15.703125 -11.71875 L 15.703125 -11.375 C 16.453125 -11.050781 17.054688 -10.566406 17.515625 -9.921875 C 17.972656 -9.285156 18.410156 -8.34375 18.828125 -7.09375 L 21.203125 0 L 16.375 0 L 14.046875 -7.109375 C 13.804688 -7.816406 13.535156 -8.367188 13.234375 -8.765625 C 12.941406 -9.160156 12.5625 -9.445312 12.09375 -9.625 C 11.632812 -9.8125 11.039062 -9.90625 10.3125 -9.90625 L 7.78125 -9.90625 L 7.78125 0 Z M 12.0625 -13.625 C 14.34375 -13.625 15.484375 -14.6875 15.484375 -16.8125 C 15.484375 -18.96875 14.34375 -20.046875 12.0625 -20.046875 L 7.78125 -20.046875 L 7.78125 -13.625 Z M 12.0625 -13.625 "/></g></g><g style="fill:#000000;fill-opacity:1;"><g transform="translate(157.690769, 289.44379)"><path style="stroke:none" d="M 7.78125 -10.4375 L 7.78125 -3.9375 L 19.140625 -3.9375 L 19.140625 0 L 3.09375 0 L 3.09375 -23.765625 L 18.875 -23.765625 L 18.875 -19.828125 L 7.78125 -19.828125 L 7.78125 -14.28125 L 17.484375 -14.28125 L 17.484375 -10.4375 Z M 7.78125 -10.4375 "/></g></g><g style="fill:#000000;fill-opacity:1;"><g transform="translate(178.117785, 289.44379)"><path style="stroke:none" d="M 10.53125 0.34375 C 8.882812 0.34375 7.414062 0.140625 6.125 -0.265625 C 4.84375 -0.671875 3.773438 -1.203125 2.921875 -1.859375 C 2.066406 -2.523438 1.410156 -3.253906 0.953125 -4.046875 L 3.546875 -7.203125 L 3.953125 -7.203125 C 4.671875 -6.140625 5.578125 -5.289062 6.671875 -4.65625 C 7.773438 -4.03125 9.0625 -3.71875 10.53125 -3.71875 C 11.789062 -3.71875 12.738281 -3.984375 13.375 -4.515625 C 14.019531 -5.046875 14.34375 -5.78125 14.34375 -6.71875 C 14.34375 -7.28125 14.238281 -7.75 14.03125 -8.125 C 13.820312 -8.507812 13.476562 -8.835938 13 -9.109375 C 12.53125 -9.378906 11.890625 -9.609375 11.078125 -9.796875 L 8.015625 -10.5 C 5.878906 -10.988281 4.285156 -11.796875 3.234375 -12.921875 C 2.191406 -14.054688 1.671875 -15.53125 1.671875 -17.34375 C 1.671875 -18.6875 2.003906 -19.867188 2.671875 -20.890625 C 3.347656 -21.910156 4.328125 -22.703125 5.609375 -23.265625 C 6.898438 -23.828125 8.4375 -24.109375 10.21875 -24.109375 C 12.050781 -24.109375 13.617188 -23.863281 14.921875 -23.375 C 16.234375 -22.894531 17.335938 -22.160156 18.234375 -21.171875 L 15.921875 -17.984375 L 15.515625 -17.984375 C 14.835938 -18.679688 14.066406 -19.207031 13.203125 -19.5625 C 12.335938 -19.914062 11.34375 -20.09375 10.21875 -20.09375 C 8.9375 -20.09375 7.957031 -19.863281 7.28125 -19.40625 C 6.613281 -18.957031 6.28125 -18.332031 6.28125 -17.53125 C 6.28125 -16.78125 6.515625 -16.179688 6.984375 -15.734375 C 7.453125 -15.296875 8.269531 -14.953125 9.4375 -14.703125 L 12.546875 -14.046875 C 14.859375 -13.554688 16.535156 -12.726562 17.578125 -11.5625 C 18.617188 -10.394531 19.140625 -8.875 19.140625 -7 C 19.140625 -5.519531 18.816406 -4.226562 18.171875 -3.125 C 17.535156 -2.03125 16.570312 -1.175781 15.28125 -0.5625 C 13.988281 0.0390625 12.40625 0.34375 10.53125 0.34375 Z M 10.53125 0.34375 "/></g></g><g style="fill:#000000;fill-opacity:1;"><g transform="translate(198.52855, 289.44379)"><path style="stroke:none" d="M 18.4375 -14.828125 L 18.4375 -23.765625 L 23.125 -23.765625 L 23.125 0 L 18.4375 0 L 18.4375 -10.828125 L 7.78125 -10.828125 L 7.78125 0 L 3.09375 0 L 3.09375 -23.765625 L 7.78125 -23.765625 L 7.78125 -14.828125 Z M 18.4375 -14.828125 "/></g></g><g style="fill:#000000;fill-opacity:1;"><g transform="translate(224.740783, 289.44379)"><path style="stroke:none" d=""/></g></g><g style="fill:#000000;fill-opacity:1;"><g transform="translate(232.589827, 289.44379)"><path style="stroke:none" d="M 3.09375 0 L 3.09375 -23.765625 L 13.234375 -23.765625 C 14.691406 -23.765625 15.925781 -23.535156 16.9375 -23.078125 C 17.957031 -22.617188 18.726562 -21.960938 19.25 -21.109375 C 19.769531 -20.253906 20.03125 -19.25 20.03125 -18.09375 C 20.03125 -17.039062 19.773438 -16.113281 19.265625 -15.3125 C 18.753906 -14.507812 18.023438 -13.863281 17.078125 -13.375 L 17.078125 -13.046875 C 18.566406 -12.648438 19.71875 -11.9375 20.53125 -10.90625 C 21.34375 -9.875 21.75 -8.613281 21.75 -7.125 C 21.75 -4.84375 21.0625 -3.082031 19.6875 -1.84375 C 18.320312 -0.613281 16.289062 0 13.59375 0 Z M 12.265625 -14.296875 C 14.453125 -14.296875 15.546875 -15.28125 15.546875 -17.25 C 15.546875 -18.257812 15.273438 -19.007812 14.734375 -19.5 C 14.191406 -19.988281 13.367188 -20.234375 12.265625 -20.234375 L 7.78125 -20.234375 L 7.78125 -14.296875 Z M 13.125 -3.71875 C 15.707031 -3.71875 17 -4.894531 17 -7.25 C 17 -9.613281 15.707031 -10.796875 13.125 -10.796875 L 7.78125 -10.796875 L 7.78125 -3.71875 Z M 13.125 -3.71875 "/></g></g><g style="fill:#000000;fill-opacity:1;"><g transform="translate(255.828198, 289.44379)"><path style="stroke:none" d="M 7.78125 0 L 3.09375 0 L 3.09375 -23.765625 L 7.78125 -23.765625 Z M 7.78125 0 "/></g></g><g style="fill:#000000;fill-opacity:1;"><g transform="translate(266.716106, 289.44379)"><path style="stroke:none" d="M 18.421875 0 L 0.96875 0 L 0.96875 -4.140625 L 12.890625 -19.5 L 12.78125 -19.828125 L 1.453125 -19.828125 L 1.453125 -23.765625 L 18.3125 -23.765625 L 18.3125 -19.625 L 6.390625 -4.28125 L 6.5 -3.9375 L 18.421875 -3.9375 Z M 18.421875 0 "/></g></g><g style="fill:#222222;fill-opacity:1;"><g transform="translate(173.338704, 246.141579)"><path style="stroke:none" d="M 8.953125 0 C 13.898438 -1.707031 17.78125 -3.539062 20.59375 -5.5 C 23.40625 -7.457031 25.40625 -10.3125 26.59375 -14.0625 C 27.789062 -17.8125 28.390625 -23.1875 28.390625 -30.1875 L 28.390625 -130.953125 C 28.390625 -137.941406 27.789062 -143.3125 26.59375 -147.0625 C 25.40625 -150.8125 23.40625 -153.707031 20.59375 -155.75 C 17.78125 -157.800781 13.898438 -159.59375 8.953125 -161.125 L 126.859375 -161.125 C 146.128906 -161.125 159.941406 -157.414062 168.296875 -150 C 176.648438 -142.582031 180.828125 -131.628906 180.828125 -117.140625 C 180.828125 -102.140625 176.476562 -91.054688 167.78125 -83.890625 C 176.3125 -80.648438 182.535156 -75.703125 186.453125 -69.046875 C 190.367188 -62.398438 192.328125 -54.046875 192.328125 -43.984375 C 192.328125 -29.492188 188.148438 -18.539062 179.796875 -11.125 C 171.441406 -3.707031 157.632812 0 138.375 0 Z M 68.796875 -66.5 L 68.796875 -27.875 L 128.140625 -27.875 C 136.660156 -27.875 142.710938 -29.453125 146.296875 -32.609375 C 149.878906 -35.765625 151.671875 -40.5 151.671875 -46.8125 C 151.671875 -53.457031 149.878906 -58.398438 146.296875 -61.640625 C 142.710938 -64.878906 136.660156 -66.5 128.140625 -66.5 Z M 68.796875 -94.640625 L 116.625 -94.640625 C 125.15625 -94.640625 131.207031 -96.257812 134.78125 -99.5 C 138.363281 -102.738281 140.15625 -107.679688 140.15625 -114.328125 C 140.15625 -120.640625 138.363281 -125.367188 134.78125 -128.515625 C 131.207031 -131.671875 125.15625 -133.25 116.625 -133.25 L 68.796875 -133.25 Z M 68.796875 -94.640625 "/></g></g></g></svg>